<mxfile host="65bd71144e">
    <diagram id="tZ0dn_g4DET0052LKfM6" name="Page-1">
        <mxGraphModel dx="469" dy="512" grid="1" gridSize="10" guides="1" tooltips="1" connect="1" arrows="1" fold="1" page="1" pageScale="1" pageWidth="827" pageHeight="1169" math="0" shadow="0">
            <root>
                <mxCell id="0"/>
                <mxCell id="1" parent="0"/>
                <mxCell id="3" value="" style="shape=table;startSize=0;container=1;collapsible=0;childLayout=tableLayout;" parent="1" vertex="1">
                    <mxGeometry x="240" y="160" width="120" height="200" as="geometry"/>
                </mxCell>
                <mxCell id="4" value="" style="shape=partialRectangle;collapsible=0;dropTarget=0;pointerEvents=0;fillColor=none;top=0;left=0;bottom=0;right=0;points=[[0,0.5],[1,0.5]];portConstraint=eastwest;" parent="3" vertex="1">
                    <mxGeometry width="120" height="40" as="geometry"/>
                </mxCell>
                <mxCell id="5" value="5" style="shape=partialRectangle;html=1;whiteSpace=wrap;connectable=0;overflow=hidden;fillColor=#dae8fc;top=0;left=0;bottom=0;right=0;pointerEvents=1;strokeColor=default;" parent="4" vertex="1">
                    <mxGeometry width="60" height="40" as="geometry">
                        <mxRectangle width="60" height="40" as="alternateBounds"/>
                    </mxGeometry>
                </mxCell>
                <mxCell id="6" value="0" style="shape=partialRectangle;html=1;whiteSpace=wrap;connectable=0;overflow=hidden;fillColor=none;top=0;left=0;bottom=0;right=0;pointerEvents=1;" parent="4" vertex="1">
                    <mxGeometry x="60" width="60" height="40" as="geometry">
                        <mxRectangle width="60" height="40" as="alternateBounds"/>
                    </mxGeometry>
                </mxCell>
                <mxCell id="7" value="" style="shape=partialRectangle;collapsible=0;dropTarget=0;pointerEvents=0;fillColor=none;top=0;left=0;bottom=0;right=0;points=[[0,0.5],[1,0.5]];portConstraint=eastwest;" parent="3" vertex="1">
                    <mxGeometry y="40" width="120" height="40" as="geometry"/>
                </mxCell>
                <mxCell id="8" value="4" style="shape=partialRectangle;html=1;whiteSpace=wrap;connectable=0;overflow=hidden;fillColor=#fff2cc;top=0;left=0;bottom=0;right=0;pointerEvents=1;strokeColor=#d6b656;" parent="7" vertex="1">
                    <mxGeometry width="60" height="40" as="geometry">
                        <mxRectangle width="60" height="40" as="alternateBounds"/>
                    </mxGeometry>
                </mxCell>
                <mxCell id="9" value="1" style="shape=partialRectangle;html=1;whiteSpace=wrap;connectable=0;overflow=hidden;fillColor=none;top=0;left=0;bottom=0;right=0;pointerEvents=1;" parent="7" vertex="1">
                    <mxGeometry x="60" width="60" height="40" as="geometry">
                        <mxRectangle width="60" height="40" as="alternateBounds"/>
                    </mxGeometry>
                </mxCell>
                <mxCell id="10" value="" style="shape=partialRectangle;collapsible=0;dropTarget=0;pointerEvents=0;fillColor=none;top=0;left=0;bottom=0;right=0;points=[[0,0.5],[1,0.5]];portConstraint=eastwest;" parent="3" vertex="1">
                    <mxGeometry y="80" width="120" height="40" as="geometry"/>
                </mxCell>
                <mxCell id="11" value="2" style="shape=partialRectangle;html=1;whiteSpace=wrap;connectable=0;overflow=hidden;fillColor=#dae8fc;top=0;left=0;bottom=0;right=0;pointerEvents=1;strokeColor=#6c8ebf;" parent="10" vertex="1">
                    <mxGeometry width="60" height="40" as="geometry">
                        <mxRectangle width="60" height="40" as="alternateBounds"/>
                    </mxGeometry>
                </mxCell>
                <mxCell id="12" value="2" style="shape=partialRectangle;html=1;whiteSpace=wrap;connectable=0;overflow=hidden;fillColor=none;top=0;left=0;bottom=0;right=0;pointerEvents=1;" parent="10" vertex="1">
                    <mxGeometry x="60" width="60" height="40" as="geometry">
                        <mxRectangle width="60" height="40" as="alternateBounds"/>
                    </mxGeometry>
                </mxCell>
                <mxCell id="13" value="" style="shape=partialRectangle;collapsible=0;dropTarget=0;pointerEvents=0;fillColor=none;top=0;left=0;bottom=0;right=0;points=[[0,0.5],[1,0.5]];portConstraint=eastwest;" parent="3" vertex="1">
                    <mxGeometry y="120" width="120" height="40" as="geometry"/>
                </mxCell>
                <mxCell id="14" value="8" style="shape=partialRectangle;html=1;whiteSpace=wrap;connectable=0;overflow=hidden;fillColor=#fff2cc;top=0;left=0;bottom=0;right=0;pointerEvents=1;strokeColor=#d6b656;" parent="13" vertex="1">
                    <mxGeometry width="60" height="40" as="geometry">
                        <mxRectangle width="60" height="40" as="alternateBounds"/>
                    </mxGeometry>
                </mxCell>
                <mxCell id="15" value="3" style="shape=partialRectangle;html=1;whiteSpace=wrap;connectable=0;overflow=hidden;fillColor=none;top=0;left=0;bottom=0;right=0;pointerEvents=1;" parent="13" vertex="1">
                    <mxGeometry x="60" width="60" height="40" as="geometry">
                        <mxRectangle width="60" height="40" as="alternateBounds"/>
                    </mxGeometry>
                </mxCell>
                <mxCell id="16" value="" style="shape=partialRectangle;collapsible=0;dropTarget=0;pointerEvents=0;fillColor=none;top=0;left=0;bottom=0;right=0;points=[[0,0.5],[1,0.5]];portConstraint=eastwest;" parent="3" vertex="1">
                    <mxGeometry y="160" width="120" height="40" as="geometry"/>
                </mxCell>
                <mxCell id="17" value="1" style="shape=partialRectangle;html=1;whiteSpace=wrap;connectable=0;overflow=hidden;fillColor=#dae8fc;top=0;left=0;bottom=0;right=0;pointerEvents=1;strokeColor=#6c8ebf;" parent="16" vertex="1">
                    <mxGeometry width="60" height="40" as="geometry">
                        <mxRectangle width="60" height="40" as="alternateBounds"/>
                    </mxGeometry>
                </mxCell>
                <mxCell id="18" value="4" style="shape=partialRectangle;html=1;whiteSpace=wrap;connectable=0;overflow=hidden;fillColor=none;top=0;left=0;bottom=0;right=0;pointerEvents=1;" parent="16" vertex="1">
                    <mxGeometry x="60" width="60" height="40" as="geometry">
                        <mxRectangle width="60" height="40" as="alternateBounds"/>
                    </mxGeometry>
                </mxCell>
                <mxCell id="19" value="Map" style="text;html=1;strokeColor=#b85450;fillColor=#f8cecc;align=center;verticalAlign=middle;whiteSpace=wrap;rounded=0;" parent="1" vertex="1">
                    <mxGeometry x="260" y="110" width="60" height="30" as="geometry"/>
                </mxCell>
                <mxCell id="20" value="List" style="text;html=1;strokeColor=#b85450;fillColor=#f8cecc;align=center;verticalAlign=middle;whiteSpace=wrap;rounded=0;" parent="1" vertex="1">
                    <mxGeometry x="490" y="100" width="60" height="30" as="geometry"/>
                </mxCell>
                <mxCell id="21" value="" style="shape=table;startSize=0;container=1;collapsible=0;childLayout=tableLayout;" parent="1" vertex="1">
                    <mxGeometry x="490" y="160" width="60" height="200" as="geometry"/>
                </mxCell>
                <mxCell id="22" value="" style="shape=partialRectangle;collapsible=0;dropTarget=0;pointerEvents=0;fillColor=none;top=0;left=0;bottom=0;right=0;points=[[0,0.5],[1,0.5]];portConstraint=eastwest;" parent="21" vertex="1">
                    <mxGeometry width="60" height="40" as="geometry"/>
                </mxCell>
                <mxCell id="23" value="5" style="shape=partialRectangle;html=1;whiteSpace=wrap;connectable=0;overflow=hidden;fillColor=#dae8fc;top=0;left=0;bottom=0;right=0;pointerEvents=1;strokeColor=#6c8ebf;" parent="22" vertex="1">
                    <mxGeometry width="60" height="40" as="geometry">
                        <mxRectangle width="60" height="40" as="alternateBounds"/>
                    </mxGeometry>
                </mxCell>
                <mxCell id="24" value="" style="shape=partialRectangle;collapsible=0;dropTarget=0;pointerEvents=0;fillColor=none;top=0;left=0;bottom=0;right=0;points=[[0,0.5],[1,0.5]];portConstraint=eastwest;" parent="21" vertex="1">
                    <mxGeometry y="40" width="60" height="40" as="geometry"/>
                </mxCell>
                <mxCell id="25" value="4" style="shape=partialRectangle;html=1;whiteSpace=wrap;connectable=0;overflow=hidden;fillColor=#fff2cc;top=0;left=0;bottom=0;right=0;pointerEvents=1;strokeColor=#d6b656;" parent="24" vertex="1">
                    <mxGeometry width="60" height="40" as="geometry">
                        <mxRectangle width="60" height="40" as="alternateBounds"/>
                    </mxGeometry>
                </mxCell>
                <mxCell id="26" value="" style="shape=partialRectangle;collapsible=0;dropTarget=0;pointerEvents=0;fillColor=none;top=0;left=0;bottom=0;right=0;points=[[0,0.5],[1,0.5]];portConstraint=eastwest;" parent="21" vertex="1">
                    <mxGeometry y="80" width="60" height="40" as="geometry"/>
                </mxCell>
                <mxCell id="27" value="2" style="shape=partialRectangle;html=1;whiteSpace=wrap;connectable=0;overflow=hidden;fillColor=#dae8fc;top=0;left=0;bottom=0;right=0;pointerEvents=1;strokeColor=#6c8ebf;" parent="26" vertex="1">
                    <mxGeometry width="60" height="40" as="geometry">
                        <mxRectangle width="60" height="40" as="alternateBounds"/>
                    </mxGeometry>
                </mxCell>
                <mxCell id="28" value="" style="shape=partialRectangle;collapsible=0;dropTarget=0;pointerEvents=0;fillColor=none;top=0;left=0;bottom=0;right=0;points=[[0,0.5],[1,0.5]];portConstraint=eastwest;" parent="21" vertex="1">
                    <mxGeometry y="120" width="60" height="40" as="geometry"/>
                </mxCell>
                <mxCell id="29" value="8" style="shape=partialRectangle;html=1;whiteSpace=wrap;connectable=0;overflow=hidden;fillColor=#fff2cc;top=0;left=0;bottom=0;right=0;pointerEvents=1;strokeColor=#d6b656;" parent="28" vertex="1">
                    <mxGeometry width="60" height="40" as="geometry">
                        <mxRectangle width="60" height="40" as="alternateBounds"/>
                    </mxGeometry>
                </mxCell>
                <mxCell id="30" value="" style="shape=partialRectangle;collapsible=0;dropTarget=0;pointerEvents=0;fillColor=none;top=0;left=0;bottom=0;right=0;points=[[0,0.5],[1,0.5]];portConstraint=eastwest;" parent="21" vertex="1">
                    <mxGeometry y="160" width="60" height="40" as="geometry"/>
                </mxCell>
                <mxCell id="31" value="1" style="shape=partialRectangle;html=1;whiteSpace=wrap;connectable=0;overflow=hidden;fillColor=#dae8fc;top=0;left=0;bottom=0;right=0;pointerEvents=1;strokeColor=#6c8ebf;" parent="30" vertex="1">
                    <mxGeometry width="60" height="40" as="geometry">
                        <mxRectangle width="60" height="40" as="alternateBounds"/>
                    </mxGeometry>
                </mxCell>
                <mxCell id="33" style="edgeStyle=none;html=1;entryX=0;entryY=0.5;entryDx=0;entryDy=0;" parent="1" source="4" target="22" edge="1">
                    <mxGeometry relative="1" as="geometry"/>
                </mxCell>
                <mxCell id="34" style="edgeStyle=none;html=1;entryX=0;entryY=0.5;entryDx=0;entryDy=0;" parent="1" source="7" target="24" edge="1">
                    <mxGeometry relative="1" as="geometry"/>
                </mxCell>
                <mxCell id="35" style="edgeStyle=none;html=1;entryX=0;entryY=0.5;entryDx=0;entryDy=0;" parent="1" source="10" target="26" edge="1">
                    <mxGeometry relative="1" as="geometry"/>
                </mxCell>
                <mxCell id="36" style="edgeStyle=none;html=1;entryX=0;entryY=0.5;entryDx=0;entryDy=0;" parent="1" source="13" target="28" edge="1">
                    <mxGeometry relative="1" as="geometry"/>
                </mxCell>
                <mxCell id="37" style="edgeStyle=none;html=1;entryX=0;entryY=0.5;entryDx=0;entryDy=0;" parent="1" source="16" target="30" edge="1">
                    <mxGeometry relative="1" as="geometry"/>
                </mxCell>
                <mxCell id="38" value="Key : the value itself" style="text;html=1;strokeColor=#b85450;fillColor=#f8cecc;align=center;verticalAlign=middle;whiteSpace=wrap;rounded=0;" parent="1" vertex="1">
                    <mxGeometry x="220" y="408" width="180" height="30" as="geometry"/>
                </mxCell>
                <mxCell id="39" value="Value : the index in the List where he value is maintained" style="text;html=1;strokeColor=#b85450;fillColor=#f8cecc;align=center;verticalAlign=middle;whiteSpace=wrap;rounded=0;" parent="1" vertex="1">
                    <mxGeometry x="220" y="440" width="180" height="30" as="geometry"/>
                </mxCell>
                <mxCell id="40" value="" style="shape=table;startSize=0;container=1;collapsible=0;childLayout=tableLayout;" parent="1" vertex="1">
                    <mxGeometry x="260" y="620" width="120" height="200" as="geometry"/>
                </mxCell>
                <mxCell id="41" value="" style="shape=partialRectangle;collapsible=0;dropTarget=0;pointerEvents=0;fillColor=none;top=0;left=0;bottom=0;right=0;points=[[0,0.5],[1,0.5]];portConstraint=eastwest;" parent="40" vertex="1">
                    <mxGeometry width="120" height="40" as="geometry"/>
                </mxCell>
                <mxCell id="42" value="5" style="shape=partialRectangle;html=1;whiteSpace=wrap;connectable=0;overflow=hidden;fillColor=#dae8fc;top=0;left=0;bottom=0;right=0;pointerEvents=1;strokeColor=default;" parent="41" vertex="1">
                    <mxGeometry width="60" height="40" as="geometry">
                        <mxRectangle width="60" height="40" as="alternateBounds"/>
                    </mxGeometry>
                </mxCell>
                <mxCell id="43" value="0" style="shape=partialRectangle;html=1;whiteSpace=wrap;connectable=0;overflow=hidden;fillColor=none;top=0;left=0;bottom=0;right=0;pointerEvents=1;" parent="41" vertex="1">
                    <mxGeometry x="60" width="60" height="40" as="geometry">
                        <mxRectangle width="60" height="40" as="alternateBounds"/>
                    </mxGeometry>
                </mxCell>
                <mxCell id="44" value="" style="shape=partialRectangle;collapsible=0;dropTarget=0;pointerEvents=0;fillColor=none;top=0;left=0;bottom=0;right=0;points=[[0,0.5],[1,0.5]];portConstraint=eastwest;" parent="40" vertex="1">
                    <mxGeometry y="40" width="120" height="40" as="geometry"/>
                </mxCell>
                <mxCell id="45" value="4" style="shape=partialRectangle;html=1;whiteSpace=wrap;connectable=0;overflow=hidden;fillColor=#fff2cc;top=0;left=0;bottom=0;right=0;pointerEvents=1;strokeColor=#d6b656;" parent="44" vertex="1">
                    <mxGeometry width="60" height="40" as="geometry">
                        <mxRectangle width="60" height="40" as="alternateBounds"/>
                    </mxGeometry>
                </mxCell>
                <mxCell id="46" value="1" style="shape=partialRectangle;html=1;whiteSpace=wrap;connectable=0;overflow=hidden;fillColor=none;top=0;left=0;bottom=0;right=0;pointerEvents=1;" parent="44" vertex="1">
                    <mxGeometry x="60" width="60" height="40" as="geometry">
                        <mxRectangle width="60" height="40" as="alternateBounds"/>
                    </mxGeometry>
                </mxCell>
                <mxCell id="47" value="" style="shape=partialRectangle;collapsible=0;dropTarget=0;pointerEvents=0;fillColor=none;top=0;left=0;bottom=0;right=0;points=[[0,0.5],[1,0.5]];portConstraint=eastwest;" parent="40" vertex="1">
                    <mxGeometry y="80" width="120" height="40" as="geometry"/>
                </mxCell>
                <mxCell id="48" value="2" style="shape=partialRectangle;html=1;whiteSpace=wrap;connectable=0;overflow=hidden;fillColor=#dae8fc;top=0;left=0;bottom=0;right=0;pointerEvents=1;strokeColor=#6c8ebf;" parent="47" vertex="1">
                    <mxGeometry width="60" height="40" as="geometry">
                        <mxRectangle width="60" height="40" as="alternateBounds"/>
                    </mxGeometry>
                </mxCell>
                <mxCell id="49" value="2" style="shape=partialRectangle;html=1;whiteSpace=wrap;connectable=0;overflow=hidden;fillColor=none;top=0;left=0;bottom=0;right=0;pointerEvents=1;" parent="47" vertex="1">
                    <mxGeometry x="60" width="60" height="40" as="geometry">
                        <mxRectangle width="60" height="40" as="alternateBounds"/>
                    </mxGeometry>
                </mxCell>
                <mxCell id="50" value="" style="shape=partialRectangle;collapsible=0;dropTarget=0;pointerEvents=0;fillColor=none;top=0;left=0;bottom=0;right=0;points=[[0,0.5],[1,0.5]];portConstraint=eastwest;" parent="40" vertex="1">
                    <mxGeometry y="120" width="120" height="40" as="geometry"/>
                </mxCell>
                <mxCell id="51" value="8" style="shape=partialRectangle;html=1;whiteSpace=wrap;connectable=0;overflow=hidden;fillColor=#fff2cc;top=0;left=0;bottom=0;right=0;pointerEvents=1;strokeColor=#d6b656;" parent="50" vertex="1">
                    <mxGeometry width="60" height="40" as="geometry">
                        <mxRectangle width="60" height="40" as="alternateBounds"/>
                    </mxGeometry>
                </mxCell>
                <mxCell id="52" value="3" style="shape=partialRectangle;html=1;whiteSpace=wrap;connectable=0;overflow=hidden;fillColor=none;top=0;left=0;bottom=0;right=0;pointerEvents=1;" parent="50" vertex="1">
                    <mxGeometry x="60" width="60" height="40" as="geometry">
                        <mxRectangle width="60" height="40" as="alternateBounds"/>
                    </mxGeometry>
                </mxCell>
                <mxCell id="53" value="" style="shape=partialRectangle;collapsible=0;dropTarget=0;pointerEvents=0;fillColor=none;top=0;left=0;bottom=0;right=0;points=[[0,0.5],[1,0.5]];portConstraint=eastwest;" parent="40" vertex="1">
                    <mxGeometry y="160" width="120" height="40" as="geometry"/>
                </mxCell>
                <mxCell id="54" value="1" style="shape=partialRectangle;html=1;whiteSpace=wrap;connectable=0;overflow=hidden;fillColor=#dae8fc;top=0;left=0;bottom=0;right=0;pointerEvents=1;strokeColor=#6c8ebf;" parent="53" vertex="1">
                    <mxGeometry width="60" height="40" as="geometry">
                        <mxRectangle width="60" height="40" as="alternateBounds"/>
                    </mxGeometry>
                </mxCell>
                <mxCell id="55" value="4" style="shape=partialRectangle;html=1;whiteSpace=wrap;connectable=0;overflow=hidden;fillColor=none;top=0;left=0;bottom=0;right=0;pointerEvents=1;" parent="53" vertex="1">
                    <mxGeometry x="60" width="60" height="40" as="geometry">
                        <mxRectangle width="60" height="40" as="alternateBounds"/>
                    </mxGeometry>
                </mxCell>
                <mxCell id="56" value="Map" style="text;html=1;strokeColor=#b85450;fillColor=#f8cecc;align=center;verticalAlign=middle;whiteSpace=wrap;rounded=0;" parent="1" vertex="1">
                    <mxGeometry x="280" y="570" width="60" height="30" as="geometry"/>
                </mxCell>
                <mxCell id="57" value="List" style="text;html=1;strokeColor=#b85450;fillColor=#f8cecc;align=center;verticalAlign=middle;whiteSpace=wrap;rounded=0;" parent="1" vertex="1">
                    <mxGeometry x="510" y="560" width="60" height="30" as="geometry"/>
                </mxCell>
                <mxCell id="58" value="" style="shape=table;startSize=0;container=1;collapsible=0;childLayout=tableLayout;" parent="1" vertex="1">
                    <mxGeometry x="510" y="620" width="60" height="200" as="geometry"/>
                </mxCell>
                <mxCell id="59" value="" style="shape=partialRectangle;collapsible=0;dropTarget=0;pointerEvents=0;fillColor=none;top=0;left=0;bottom=0;right=0;points=[[0,0.5],[1,0.5]];portConstraint=eastwest;" parent="58" vertex="1">
                    <mxGeometry width="60" height="40" as="geometry"/>
                </mxCell>
                <mxCell id="60" value="5" style="shape=partialRectangle;html=1;whiteSpace=wrap;connectable=0;overflow=hidden;fillColor=#dae8fc;top=0;left=0;bottom=0;right=0;pointerEvents=1;strokeColor=#6c8ebf;" parent="59" vertex="1">
                    <mxGeometry width="60" height="40" as="geometry">
                        <mxRectangle width="60" height="40" as="alternateBounds"/>
                    </mxGeometry>
                </mxCell>
                <mxCell id="61" value="" style="shape=partialRectangle;collapsible=0;dropTarget=0;pointerEvents=0;fillColor=none;top=0;left=0;bottom=0;right=0;points=[[0,0.5],[1,0.5]];portConstraint=eastwest;" parent="58" vertex="1">
                    <mxGeometry y="40" width="60" height="40" as="geometry"/>
                </mxCell>
                <mxCell id="62" value="4" style="shape=partialRectangle;html=1;whiteSpace=wrap;connectable=0;overflow=hidden;fillColor=#fff2cc;top=0;left=0;bottom=0;right=0;pointerEvents=1;strokeColor=#d6b656;" parent="61" vertex="1">
                    <mxGeometry width="60" height="40" as="geometry">
                        <mxRectangle width="60" height="40" as="alternateBounds"/>
                    </mxGeometry>
                </mxCell>
                <mxCell id="63" value="" style="shape=partialRectangle;collapsible=0;dropTarget=0;pointerEvents=0;fillColor=none;top=0;left=0;bottom=0;right=0;points=[[0,0.5],[1,0.5]];portConstraint=eastwest;" parent="58" vertex="1">
                    <mxGeometry y="80" width="60" height="40" as="geometry"/>
                </mxCell>
                <mxCell id="64" value="2" style="shape=partialRectangle;html=1;whiteSpace=wrap;connectable=0;overflow=hidden;fillColor=#dae8fc;top=0;left=0;bottom=0;right=0;pointerEvents=1;strokeColor=#6c8ebf;" parent="63" vertex="1">
                    <mxGeometry width="60" height="40" as="geometry">
                        <mxRectangle width="60" height="40" as="alternateBounds"/>
                    </mxGeometry>
                </mxCell>
                <mxCell id="65" value="" style="shape=partialRectangle;collapsible=0;dropTarget=0;pointerEvents=0;fillColor=none;top=0;left=0;bottom=0;right=0;points=[[0,0.5],[1,0.5]];portConstraint=eastwest;" parent="58" vertex="1">
                    <mxGeometry y="120" width="60" height="40" as="geometry"/>
                </mxCell>
                <mxCell id="66" value="8" style="shape=partialRectangle;html=1;whiteSpace=wrap;connectable=0;overflow=hidden;fillColor=#fff2cc;top=0;left=0;bottom=0;right=0;pointerEvents=1;strokeColor=#d6b656;" parent="65" vertex="1">
                    <mxGeometry width="60" height="40" as="geometry">
                        <mxRectangle width="60" height="40" as="alternateBounds"/>
                    </mxGeometry>
                </mxCell>
                <mxCell id="67" value="" style="shape=partialRectangle;collapsible=0;dropTarget=0;pointerEvents=0;fillColor=none;top=0;left=0;bottom=0;right=0;points=[[0,0.5],[1,0.5]];portConstraint=eastwest;" parent="58" vertex="1">
                    <mxGeometry y="160" width="60" height="40" as="geometry"/>
                </mxCell>
                <mxCell id="68" value="1" style="shape=partialRectangle;html=1;whiteSpace=wrap;connectable=0;overflow=hidden;fillColor=#dae8fc;top=0;left=0;bottom=0;right=0;pointerEvents=1;strokeColor=#6c8ebf;" parent="67" vertex="1">
                    <mxGeometry width="60" height="40" as="geometry">
                        <mxRectangle width="60" height="40" as="alternateBounds"/>
                    </mxGeometry>
                </mxCell>
                <mxCell id="69" style="edgeStyle=none;html=1;entryX=0;entryY=0.5;entryDx=0;entryDy=0;" parent="1" source="41" target="59" edge="1">
                    <mxGeometry relative="1" as="geometry"/>
                </mxCell>
                <mxCell id="70" style="edgeStyle=none;html=1;entryX=0;entryY=0.5;entryDx=0;entryDy=0;" parent="1" source="44" target="61" edge="1">
                    <mxGeometry relative="1" as="geometry"/>
                </mxCell>
                <mxCell id="71" style="edgeStyle=none;html=1;entryX=0;entryY=0.5;entryDx=0;entryDy=0;" parent="1" source="47" target="63" edge="1">
                    <mxGeometry relative="1" as="geometry"/>
                </mxCell>
                <mxCell id="72" style="edgeStyle=none;html=1;entryX=0;entryY=0.5;entryDx=0;entryDy=0;" parent="1" source="50" target="65" edge="1">
                    <mxGeometry relative="1" as="geometry"/>
                </mxCell>
                <mxCell id="73" style="edgeStyle=none;html=1;entryX=0;entryY=0.5;entryDx=0;entryDy=0;" parent="1" source="53" target="67" edge="1">
                    <mxGeometry relative="1" as="geometry"/>
                </mxCell>
                <mxCell id="76" value="Delete 4" style="text;html=1;strokeColor=#b85450;fillColor=#f8cecc;align=center;verticalAlign=middle;whiteSpace=wrap;rounded=0;" parent="1" vertex="1">
                    <mxGeometry x="130" y="830" width="60" height="30" as="geometry"/>
                </mxCell>
                <mxCell id="77" value="" style="shape=table;startSize=0;container=1;collapsible=0;childLayout=tableLayout;" parent="1" vertex="1">
                    <mxGeometry x="262" y="850" width="120" height="200" as="geometry"/>
                </mxCell>
                <mxCell id="78" value="" style="shape=partialRectangle;collapsible=0;dropTarget=0;pointerEvents=0;fillColor=none;top=0;left=0;bottom=0;right=0;points=[[0,0.5],[1,0.5]];portConstraint=eastwest;" parent="77" vertex="1">
                    <mxGeometry width="120" height="40" as="geometry"/>
                </mxCell>
                <mxCell id="79" value="5" style="shape=partialRectangle;html=1;whiteSpace=wrap;connectable=0;overflow=hidden;fillColor=#dae8fc;top=0;left=0;bottom=0;right=0;pointerEvents=1;strokeColor=default;" parent="78" vertex="1">
                    <mxGeometry width="60" height="40" as="geometry">
                        <mxRectangle width="60" height="40" as="alternateBounds"/>
                    </mxGeometry>
                </mxCell>
                <mxCell id="80" value="0" style="shape=partialRectangle;html=1;whiteSpace=wrap;connectable=0;overflow=hidden;fillColor=none;top=0;left=0;bottom=0;right=0;pointerEvents=1;" parent="78" vertex="1">
                    <mxGeometry x="60" width="60" height="40" as="geometry">
                        <mxRectangle width="60" height="40" as="alternateBounds"/>
                    </mxGeometry>
                </mxCell>
                <mxCell id="81" value="" style="shape=partialRectangle;collapsible=0;dropTarget=0;pointerEvents=0;fillColor=none;top=0;left=0;bottom=0;right=0;points=[[0,0.5],[1,0.5]];portConstraint=eastwest;" parent="77" vertex="1">
                    <mxGeometry y="40" width="120" height="40" as="geometry"/>
                </mxCell>
                <mxCell id="82" value="" style="shape=partialRectangle;html=1;whiteSpace=wrap;connectable=0;overflow=hidden;fillColor=#fff2cc;top=0;left=0;bottom=0;right=0;pointerEvents=1;strokeColor=#d6b656;" parent="81" vertex="1">
                    <mxGeometry width="60" height="40" as="geometry">
                        <mxRectangle width="60" height="40" as="alternateBounds"/>
                    </mxGeometry>
                </mxCell>
                <mxCell id="83" value="" style="shape=partialRectangle;html=1;whiteSpace=wrap;connectable=0;overflow=hidden;fillColor=none;top=0;left=0;bottom=0;right=0;pointerEvents=1;" parent="81" vertex="1">
                    <mxGeometry x="60" width="60" height="40" as="geometry">
                        <mxRectangle width="60" height="40" as="alternateBounds"/>
                    </mxGeometry>
                </mxCell>
                <mxCell id="84" value="" style="shape=partialRectangle;collapsible=0;dropTarget=0;pointerEvents=0;fillColor=none;top=0;left=0;bottom=0;right=0;points=[[0,0.5],[1,0.5]];portConstraint=eastwest;" parent="77" vertex="1">
                    <mxGeometry y="80" width="120" height="40" as="geometry"/>
                </mxCell>
                <mxCell id="85" value="2" style="shape=partialRectangle;html=1;whiteSpace=wrap;connectable=0;overflow=hidden;fillColor=#dae8fc;top=0;left=0;bottom=0;right=0;pointerEvents=1;strokeColor=#6c8ebf;" parent="84" vertex="1">
                    <mxGeometry width="60" height="40" as="geometry">
                        <mxRectangle width="60" height="40" as="alternateBounds"/>
                    </mxGeometry>
                </mxCell>
                <mxCell id="86" value="2" style="shape=partialRectangle;html=1;whiteSpace=wrap;connectable=0;overflow=hidden;fillColor=none;top=0;left=0;bottom=0;right=0;pointerEvents=1;" parent="84" vertex="1">
                    <mxGeometry x="60" width="60" height="40" as="geometry">
                        <mxRectangle width="60" height="40" as="alternateBounds"/>
                    </mxGeometry>
                </mxCell>
                <mxCell id="87" value="" style="shape=partialRectangle;collapsible=0;dropTarget=0;pointerEvents=0;fillColor=none;top=0;left=0;bottom=0;right=0;points=[[0,0.5],[1,0.5]];portConstraint=eastwest;" parent="77" vertex="1">
                    <mxGeometry y="120" width="120" height="40" as="geometry"/>
                </mxCell>
                <mxCell id="88" value="8" style="shape=partialRectangle;html=1;whiteSpace=wrap;connectable=0;overflow=hidden;fillColor=#fff2cc;top=0;left=0;bottom=0;right=0;pointerEvents=1;strokeColor=#d6b656;" parent="87" vertex="1">
                    <mxGeometry width="60" height="40" as="geometry">
                        <mxRectangle width="60" height="40" as="alternateBounds"/>
                    </mxGeometry>
                </mxCell>
                <mxCell id="89" value="3" style="shape=partialRectangle;html=1;whiteSpace=wrap;connectable=0;overflow=hidden;fillColor=none;top=0;left=0;bottom=0;right=0;pointerEvents=1;" parent="87" vertex="1">
                    <mxGeometry x="60" width="60" height="40" as="geometry">
                        <mxRectangle width="60" height="40" as="alternateBounds"/>
                    </mxGeometry>
                </mxCell>
                <mxCell id="90" value="" style="shape=partialRectangle;collapsible=0;dropTarget=0;pointerEvents=0;fillColor=none;top=0;left=0;bottom=0;right=0;points=[[0,0.5],[1,0.5]];portConstraint=eastwest;" parent="77" vertex="1">
                    <mxGeometry y="160" width="120" height="40" as="geometry"/>
                </mxCell>
                <mxCell id="91" value="1" style="shape=partialRectangle;html=1;whiteSpace=wrap;connectable=0;overflow=hidden;fillColor=#dae8fc;top=0;left=0;bottom=0;right=0;pointerEvents=1;strokeColor=#6c8ebf;" parent="90" vertex="1">
                    <mxGeometry width="60" height="40" as="geometry">
                        <mxRectangle width="60" height="40" as="alternateBounds"/>
                    </mxGeometry>
                </mxCell>
                <mxCell id="92" value="4" style="shape=partialRectangle;html=1;whiteSpace=wrap;connectable=0;overflow=hidden;fillColor=none;top=0;left=0;bottom=0;right=0;pointerEvents=1;" parent="90" vertex="1">
                    <mxGeometry x="60" width="60" height="40" as="geometry">
                        <mxRectangle width="60" height="40" as="alternateBounds"/>
                    </mxGeometry>
                </mxCell>
                <mxCell id="93" value="" style="shape=table;startSize=0;container=1;collapsible=0;childLayout=tableLayout;" parent="1" vertex="1">
                    <mxGeometry x="512" y="850" width="60" height="200" as="geometry"/>
                </mxCell>
                <mxCell id="94" value="" style="shape=partialRectangle;collapsible=0;dropTarget=0;pointerEvents=0;fillColor=none;top=0;left=0;bottom=0;right=0;points=[[0,0.5],[1,0.5]];portConstraint=eastwest;" parent="93" vertex="1">
                    <mxGeometry width="60" height="40" as="geometry"/>
                </mxCell>
                <mxCell id="95" value="5" style="shape=partialRectangle;html=1;whiteSpace=wrap;connectable=0;overflow=hidden;fillColor=#dae8fc;top=0;left=0;bottom=0;right=0;pointerEvents=1;strokeColor=#6c8ebf;" parent="94" vertex="1">
                    <mxGeometry width="60" height="40" as="geometry">
                        <mxRectangle width="60" height="40" as="alternateBounds"/>
                    </mxGeometry>
                </mxCell>
                <mxCell id="96" value="" style="shape=partialRectangle;collapsible=0;dropTarget=0;pointerEvents=0;fillColor=none;top=0;left=0;bottom=0;right=0;points=[[0,0.5],[1,0.5]];portConstraint=eastwest;" parent="93" vertex="1">
                    <mxGeometry y="40" width="60" height="40" as="geometry"/>
                </mxCell>
                <mxCell id="97" value="" style="shape=partialRectangle;html=1;whiteSpace=wrap;connectable=0;overflow=hidden;fillColor=#fff2cc;top=0;left=0;bottom=0;right=0;pointerEvents=1;strokeColor=#d6b656;" parent="96" vertex="1">
                    <mxGeometry width="60" height="40" as="geometry">
                        <mxRectangle width="60" height="40" as="alternateBounds"/>
                    </mxGeometry>
                </mxCell>
                <mxCell id="98" value="" style="shape=partialRectangle;collapsible=0;dropTarget=0;pointerEvents=0;fillColor=none;top=0;left=0;bottom=0;right=0;points=[[0,0.5],[1,0.5]];portConstraint=eastwest;" parent="93" vertex="1">
                    <mxGeometry y="80" width="60" height="40" as="geometry"/>
                </mxCell>
                <mxCell id="99" value="2" style="shape=partialRectangle;html=1;whiteSpace=wrap;connectable=0;overflow=hidden;fillColor=#dae8fc;top=0;left=0;bottom=0;right=0;pointerEvents=1;strokeColor=#6c8ebf;" parent="98" vertex="1">
                    <mxGeometry width="60" height="40" as="geometry">
                        <mxRectangle width="60" height="40" as="alternateBounds"/>
                    </mxGeometry>
                </mxCell>
                <mxCell id="100" value="" style="shape=partialRectangle;collapsible=0;dropTarget=0;pointerEvents=0;fillColor=none;top=0;left=0;bottom=0;right=0;points=[[0,0.5],[1,0.5]];portConstraint=eastwest;" parent="93" vertex="1">
                    <mxGeometry y="120" width="60" height="40" as="geometry"/>
                </mxCell>
                <mxCell id="101" value="8" style="shape=partialRectangle;html=1;whiteSpace=wrap;connectable=0;overflow=hidden;fillColor=#fff2cc;top=0;left=0;bottom=0;right=0;pointerEvents=1;strokeColor=#d6b656;" parent="100" vertex="1">
                    <mxGeometry width="60" height="40" as="geometry">
                        <mxRectangle width="60" height="40" as="alternateBounds"/>
                    </mxGeometry>
                </mxCell>
                <mxCell id="102" value="" style="shape=partialRectangle;collapsible=0;dropTarget=0;pointerEvents=0;fillColor=none;top=0;left=0;bottom=0;right=0;points=[[0,0.5],[1,0.5]];portConstraint=eastwest;" parent="93" vertex="1">
                    <mxGeometry y="160" width="60" height="40" as="geometry"/>
                </mxCell>
                <mxCell id="103" value="1" style="shape=partialRectangle;html=1;whiteSpace=wrap;connectable=0;overflow=hidden;fillColor=#dae8fc;top=0;left=0;bottom=0;right=0;pointerEvents=1;strokeColor=#6c8ebf;" parent="102" vertex="1">
                    <mxGeometry width="60" height="40" as="geometry">
                        <mxRectangle width="60" height="40" as="alternateBounds"/>
                    </mxGeometry>
                </mxCell>
                <mxCell id="104" style="edgeStyle=none;html=1;entryX=0;entryY=0.5;entryDx=0;entryDy=0;" parent="1" source="78" target="94" edge="1">
                    <mxGeometry relative="1" as="geometry"/>
                </mxCell>
                <mxCell id="106" style="edgeStyle=none;html=1;entryX=0;entryY=0.5;entryDx=0;entryDy=0;" parent="1" source="84" target="98" edge="1">
                    <mxGeometry relative="1" as="geometry"/>
                </mxCell>
                <mxCell id="107" style="edgeStyle=none;html=1;entryX=0;entryY=0.5;entryDx=0;entryDy=0;" parent="1" source="87" target="100" edge="1">
                    <mxGeometry relative="1" as="geometry"/>
                </mxCell>
                <mxCell id="108" style="edgeStyle=none;html=1;entryX=0;entryY=0.5;entryDx=0;entryDy=0;" parent="1" source="90" target="102" edge="1">
                    <mxGeometry relative="1" as="geometry"/>
                </mxCell>
                <mxCell id="109" value="Remove element 4 from teh list" style="text;html=1;strokeColor=#b85450;fillColor=#f8cecc;align=center;verticalAlign=middle;whiteSpace=wrap;rounded=0;" parent="1" vertex="1">
                    <mxGeometry x="260" y="1090" width="320" height="30" as="geometry"/>
                </mxCell>
                <mxCell id="110" value="Remove element 4 from teh Map" style="text;html=1;strokeColor=#b85450;fillColor=#f8cecc;align=center;verticalAlign=middle;whiteSpace=wrap;rounded=0;" parent="1" vertex="1">
                    <mxGeometry x="262" y="1130" width="320" height="30" as="geometry"/>
                </mxCell>
                <mxCell id="111" value="" style="shape=table;startSize=0;container=1;collapsible=0;childLayout=tableLayout;" parent="1" vertex="1">
                    <mxGeometry x="261" y="1190" width="120" height="200" as="geometry"/>
                </mxCell>
                <mxCell id="112" value="" style="shape=partialRectangle;collapsible=0;dropTarget=0;pointerEvents=0;fillColor=none;top=0;left=0;bottom=0;right=0;points=[[0,0.5],[1,0.5]];portConstraint=eastwest;" parent="111" vertex="1">
                    <mxGeometry width="120" height="40" as="geometry"/>
                </mxCell>
                <mxCell id="113" value="5" style="shape=partialRectangle;html=1;whiteSpace=wrap;connectable=0;overflow=hidden;fillColor=#dae8fc;top=0;left=0;bottom=0;right=0;pointerEvents=1;strokeColor=default;" parent="112" vertex="1">
                    <mxGeometry width="60" height="40" as="geometry">
                        <mxRectangle width="60" height="40" as="alternateBounds"/>
                    </mxGeometry>
                </mxCell>
                <mxCell id="114" value="0" style="shape=partialRectangle;html=1;whiteSpace=wrap;connectable=0;overflow=hidden;fillColor=none;top=0;left=0;bottom=0;right=0;pointerEvents=1;" parent="112" vertex="1">
                    <mxGeometry x="60" width="60" height="40" as="geometry">
                        <mxRectangle width="60" height="40" as="alternateBounds"/>
                    </mxGeometry>
                </mxCell>
                <mxCell id="115" value="" style="shape=partialRectangle;collapsible=0;dropTarget=0;pointerEvents=0;fillColor=none;top=0;left=0;bottom=0;right=0;points=[[0,0.5],[1,0.5]];portConstraint=eastwest;" parent="111" vertex="1">
                    <mxGeometry y="40" width="120" height="40" as="geometry"/>
                </mxCell>
                <mxCell id="116" value="" style="shape=partialRectangle;html=1;whiteSpace=wrap;connectable=0;overflow=hidden;fillColor=#fff2cc;top=0;left=0;bottom=0;right=0;pointerEvents=1;strokeColor=#d6b656;" parent="115" vertex="1">
                    <mxGeometry width="60" height="40" as="geometry">
                        <mxRectangle width="60" height="40" as="alternateBounds"/>
                    </mxGeometry>
                </mxCell>
                <mxCell id="117" value="" style="shape=partialRectangle;html=1;whiteSpace=wrap;connectable=0;overflow=hidden;fillColor=none;top=0;left=0;bottom=0;right=0;pointerEvents=1;" parent="115" vertex="1">
                    <mxGeometry x="60" width="60" height="40" as="geometry">
                        <mxRectangle width="60" height="40" as="alternateBounds"/>
                    </mxGeometry>
                </mxCell>
                <mxCell id="118" value="" style="shape=partialRectangle;collapsible=0;dropTarget=0;pointerEvents=0;fillColor=none;top=0;left=0;bottom=0;right=0;points=[[0,0.5],[1,0.5]];portConstraint=eastwest;" parent="111" vertex="1">
                    <mxGeometry y="80" width="120" height="40" as="geometry"/>
                </mxCell>
                <mxCell id="119" value="2" style="shape=partialRectangle;html=1;whiteSpace=wrap;connectable=0;overflow=hidden;fillColor=#dae8fc;top=0;left=0;bottom=0;right=0;pointerEvents=1;strokeColor=#6c8ebf;" parent="118" vertex="1">
                    <mxGeometry width="60" height="40" as="geometry">
                        <mxRectangle width="60" height="40" as="alternateBounds"/>
                    </mxGeometry>
                </mxCell>
                <mxCell id="120" value="2" style="shape=partialRectangle;html=1;whiteSpace=wrap;connectable=0;overflow=hidden;fillColor=none;top=0;left=0;bottom=0;right=0;pointerEvents=1;" parent="118" vertex="1">
                    <mxGeometry x="60" width="60" height="40" as="geometry">
                        <mxRectangle width="60" height="40" as="alternateBounds"/>
                    </mxGeometry>
                </mxCell>
                <mxCell id="121" value="" style="shape=partialRectangle;collapsible=0;dropTarget=0;pointerEvents=0;fillColor=none;top=0;left=0;bottom=0;right=0;points=[[0,0.5],[1,0.5]];portConstraint=eastwest;" parent="111" vertex="1">
                    <mxGeometry y="120" width="120" height="40" as="geometry"/>
                </mxCell>
                <mxCell id="122" value="8" style="shape=partialRectangle;html=1;whiteSpace=wrap;connectable=0;overflow=hidden;fillColor=#fff2cc;top=0;left=0;bottom=0;right=0;pointerEvents=1;strokeColor=#d6b656;" parent="121" vertex="1">
                    <mxGeometry width="60" height="40" as="geometry">
                        <mxRectangle width="60" height="40" as="alternateBounds"/>
                    </mxGeometry>
                </mxCell>
                <mxCell id="123" value="3" style="shape=partialRectangle;html=1;whiteSpace=wrap;connectable=0;overflow=hidden;fillColor=none;top=0;left=0;bottom=0;right=0;pointerEvents=1;" parent="121" vertex="1">
                    <mxGeometry x="60" width="60" height="40" as="geometry">
                        <mxRectangle width="60" height="40" as="alternateBounds"/>
                    </mxGeometry>
                </mxCell>
                <mxCell id="124" value="" style="shape=partialRectangle;collapsible=0;dropTarget=0;pointerEvents=0;fillColor=none;top=0;left=0;bottom=0;right=0;points=[[0,0.5],[1,0.5]];portConstraint=eastwest;" parent="111" vertex="1">
                    <mxGeometry y="160" width="120" height="40" as="geometry"/>
                </mxCell>
                <mxCell id="125" value="1" style="shape=partialRectangle;html=1;whiteSpace=wrap;connectable=0;overflow=hidden;fillColor=#dae8fc;top=0;left=0;bottom=0;right=0;pointerEvents=1;strokeColor=#6c8ebf;" parent="124" vertex="1">
                    <mxGeometry width="60" height="40" as="geometry">
                        <mxRectangle width="60" height="40" as="alternateBounds"/>
                    </mxGeometry>
                </mxCell>
                <mxCell id="126" value="4" style="shape=partialRectangle;html=1;whiteSpace=wrap;connectable=0;overflow=hidden;fillColor=none;top=0;left=0;bottom=0;right=0;pointerEvents=1;" parent="124" vertex="1">
                    <mxGeometry x="60" width="60" height="40" as="geometry">
                        <mxRectangle width="60" height="40" as="alternateBounds"/>
                    </mxGeometry>
                </mxCell>
                <mxCell id="127" value="" style="shape=table;startSize=0;container=1;collapsible=0;childLayout=tableLayout;" parent="1" vertex="1">
                    <mxGeometry x="511" y="1190" width="60" height="200" as="geometry"/>
                </mxCell>
                <mxCell id="128" value="" style="shape=partialRectangle;collapsible=0;dropTarget=0;pointerEvents=0;fillColor=none;top=0;left=0;bottom=0;right=0;points=[[0,0.5],[1,0.5]];portConstraint=eastwest;" parent="127" vertex="1">
                    <mxGeometry width="60" height="40" as="geometry"/>
                </mxCell>
                <mxCell id="129" value="5" style="shape=partialRectangle;html=1;whiteSpace=wrap;connectable=0;overflow=hidden;fillColor=#dae8fc;top=0;left=0;bottom=0;right=0;pointerEvents=1;strokeColor=#6c8ebf;" parent="128" vertex="1">
                    <mxGeometry width="60" height="40" as="geometry">
                        <mxRectangle width="60" height="40" as="alternateBounds"/>
                    </mxGeometry>
                </mxCell>
                <mxCell id="130" value="" style="shape=partialRectangle;collapsible=0;dropTarget=0;pointerEvents=0;fillColor=none;top=0;left=0;bottom=0;right=0;points=[[0,0.5],[1,0.5]];portConstraint=eastwest;" parent="127" vertex="1">
                    <mxGeometry y="40" width="60" height="40" as="geometry"/>
                </mxCell>
                <mxCell id="131" value="1" style="shape=partialRectangle;html=1;whiteSpace=wrap;connectable=0;overflow=hidden;fillColor=#d5e8d4;top=0;left=0;bottom=0;right=0;pointerEvents=1;strokeColor=#82b366;dashed=1;" parent="130" vertex="1">
                    <mxGeometry width="60" height="40" as="geometry">
                        <mxRectangle width="60" height="40" as="alternateBounds"/>
                    </mxGeometry>
                </mxCell>
                <mxCell id="132" value="" style="shape=partialRectangle;collapsible=0;dropTarget=0;pointerEvents=0;fillColor=none;top=0;left=0;bottom=0;right=0;points=[[0,0.5],[1,0.5]];portConstraint=eastwest;" parent="127" vertex="1">
                    <mxGeometry y="80" width="60" height="40" as="geometry"/>
                </mxCell>
                <mxCell id="133" value="2" style="shape=partialRectangle;html=1;whiteSpace=wrap;connectable=0;overflow=hidden;fillColor=#dae8fc;top=0;left=0;bottom=0;right=0;pointerEvents=1;strokeColor=#6c8ebf;" parent="132" vertex="1">
                    <mxGeometry width="60" height="40" as="geometry">
                        <mxRectangle width="60" height="40" as="alternateBounds"/>
                    </mxGeometry>
                </mxCell>
                <mxCell id="134" value="" style="shape=partialRectangle;collapsible=0;dropTarget=0;pointerEvents=0;fillColor=none;top=0;left=0;bottom=0;right=0;points=[[0,0.5],[1,0.5]];portConstraint=eastwest;" parent="127" vertex="1">
                    <mxGeometry y="120" width="60" height="40" as="geometry"/>
                </mxCell>
                <mxCell id="135" value="8" style="shape=partialRectangle;html=1;whiteSpace=wrap;connectable=0;overflow=hidden;fillColor=#fff2cc;top=0;left=0;bottom=0;right=0;pointerEvents=1;strokeColor=#d6b656;" parent="134" vertex="1">
                    <mxGeometry width="60" height="40" as="geometry">
                        <mxRectangle width="60" height="40" as="alternateBounds"/>
                    </mxGeometry>
                </mxCell>
                <mxCell id="144" style="edgeStyle=none;html=1;entryX=1;entryY=0.5;entryDx=0;entryDy=0;exitX=1;exitY=0.25;exitDx=0;exitDy=0;exitPerimeter=0;" parent="127" source="136" target="130" edge="1">
                    <mxGeometry relative="1" as="geometry">
                        <Array as="points">
                            <mxPoint x="119" y="120"/>
                        </Array>
                    </mxGeometry>
                </mxCell>
                <mxCell id="136" value="" style="shape=partialRectangle;collapsible=0;dropTarget=0;pointerEvents=0;fillColor=none;top=0;left=0;bottom=0;right=0;points=[[0,0.5],[1,0.5]];portConstraint=eastwest;" parent="127" vertex="1">
                    <mxGeometry y="160" width="60" height="40" as="geometry"/>
                </mxCell>
                <mxCell id="137" value="1" style="shape=partialRectangle;html=1;whiteSpace=wrap;connectable=0;overflow=hidden;fillColor=#d5e8d4;top=0;left=0;bottom=0;right=0;pointerEvents=1;strokeColor=#82b366;" parent="136" vertex="1">
                    <mxGeometry width="60" height="40" as="geometry">
                        <mxRectangle width="60" height="40" as="alternateBounds"/>
                    </mxGeometry>
                </mxCell>
                <mxCell id="138" style="edgeStyle=none;html=1;entryX=0;entryY=0.5;entryDx=0;entryDy=0;" parent="1" source="112" target="128" edge="1">
                    <mxGeometry relative="1" as="geometry"/>
                </mxCell>
                <mxCell id="139" style="edgeStyle=none;html=1;entryX=0;entryY=0.5;entryDx=0;entryDy=0;" parent="1" source="118" target="132" edge="1">
                    <mxGeometry relative="1" as="geometry"/>
                </mxCell>
                <mxCell id="140" style="edgeStyle=none;html=1;entryX=0;entryY=0.5;entryDx=0;entryDy=0;" parent="1" source="121" target="134" edge="1">
                    <mxGeometry relative="1" as="geometry"/>
                </mxCell>
                <mxCell id="141" style="edgeStyle=none;html=1;entryX=0;entryY=0.5;entryDx=0;entryDy=0;" parent="1" source="124" target="136" edge="1">
                    <mxGeometry relative="1" as="geometry"/>
                </mxCell>
                <mxCell id="142" value="place the last element ( i.e 1) from the list to the vacant index" style="text;html=1;strokeColor=#b85450;fillColor=#f8cecc;align=center;verticalAlign=middle;whiteSpace=wrap;rounded=0;" parent="1" vertex="1">
                    <mxGeometry x="259" y="1430" width="320" height="30" as="geometry"/>
                </mxCell>
                <mxCell id="146" value="" style="shape=table;startSize=0;container=1;collapsible=0;childLayout=tableLayout;" parent="1" vertex="1">
                    <mxGeometry x="264" y="1500" width="120" height="200" as="geometry"/>
                </mxCell>
                <mxCell id="147" value="" style="shape=partialRectangle;collapsible=0;dropTarget=0;pointerEvents=0;fillColor=none;top=0;left=0;bottom=0;right=0;points=[[0,0.5],[1,0.5]];portConstraint=eastwest;" parent="146" vertex="1">
                    <mxGeometry width="120" height="40" as="geometry"/>
                </mxCell>
                <mxCell id="148" value="5" style="shape=partialRectangle;html=1;whiteSpace=wrap;connectable=0;overflow=hidden;fillColor=#dae8fc;top=0;left=0;bottom=0;right=0;pointerEvents=1;strokeColor=default;" parent="147" vertex="1">
                    <mxGeometry width="60" height="40" as="geometry">
                        <mxRectangle width="60" height="40" as="alternateBounds"/>
                    </mxGeometry>
                </mxCell>
                <mxCell id="149" value="0" style="shape=partialRectangle;html=1;whiteSpace=wrap;connectable=0;overflow=hidden;fillColor=none;top=0;left=0;bottom=0;right=0;pointerEvents=1;" parent="147" vertex="1">
                    <mxGeometry x="60" width="60" height="40" as="geometry">
                        <mxRectangle width="60" height="40" as="alternateBounds"/>
                    </mxGeometry>
                </mxCell>
                <mxCell id="150" value="" style="shape=partialRectangle;collapsible=0;dropTarget=0;pointerEvents=0;fillColor=none;top=0;left=0;bottom=0;right=0;points=[[0,0.5],[1,0.5]];portConstraint=eastwest;" parent="146" vertex="1">
                    <mxGeometry y="40" width="120" height="40" as="geometry"/>
                </mxCell>
                <mxCell id="151" value="" style="shape=partialRectangle;html=1;whiteSpace=wrap;connectable=0;overflow=hidden;fillColor=#fff2cc;top=0;left=0;bottom=0;right=0;pointerEvents=1;strokeColor=#d6b656;" parent="150" vertex="1">
                    <mxGeometry width="60" height="40" as="geometry">
                        <mxRectangle width="60" height="40" as="alternateBounds"/>
                    </mxGeometry>
                </mxCell>
                <mxCell id="152" value="" style="shape=partialRectangle;html=1;whiteSpace=wrap;connectable=0;overflow=hidden;fillColor=none;top=0;left=0;bottom=0;right=0;pointerEvents=1;" parent="150" vertex="1">
                    <mxGeometry x="60" width="60" height="40" as="geometry">
                        <mxRectangle width="60" height="40" as="alternateBounds"/>
                    </mxGeometry>
                </mxCell>
                <mxCell id="153" value="" style="shape=partialRectangle;collapsible=0;dropTarget=0;pointerEvents=0;fillColor=none;top=0;left=0;bottom=0;right=0;points=[[0,0.5],[1,0.5]];portConstraint=eastwest;" parent="146" vertex="1">
                    <mxGeometry y="80" width="120" height="40" as="geometry"/>
                </mxCell>
                <mxCell id="154" value="2" style="shape=partialRectangle;html=1;whiteSpace=wrap;connectable=0;overflow=hidden;fillColor=#dae8fc;top=0;left=0;bottom=0;right=0;pointerEvents=1;strokeColor=#6c8ebf;" parent="153" vertex="1">
                    <mxGeometry width="60" height="40" as="geometry">
                        <mxRectangle width="60" height="40" as="alternateBounds"/>
                    </mxGeometry>
                </mxCell>
                <mxCell id="155" value="2" style="shape=partialRectangle;html=1;whiteSpace=wrap;connectable=0;overflow=hidden;fillColor=none;top=0;left=0;bottom=0;right=0;pointerEvents=1;" parent="153" vertex="1">
                    <mxGeometry x="60" width="60" height="40" as="geometry">
                        <mxRectangle width="60" height="40" as="alternateBounds"/>
                    </mxGeometry>
                </mxCell>
                <mxCell id="156" value="" style="shape=partialRectangle;collapsible=0;dropTarget=0;pointerEvents=0;fillColor=none;top=0;left=0;bottom=0;right=0;points=[[0,0.5],[1,0.5]];portConstraint=eastwest;" parent="146" vertex="1">
                    <mxGeometry y="120" width="120" height="40" as="geometry"/>
                </mxCell>
                <mxCell id="157" value="8" style="shape=partialRectangle;html=1;whiteSpace=wrap;connectable=0;overflow=hidden;fillColor=#fff2cc;top=0;left=0;bottom=0;right=0;pointerEvents=1;strokeColor=#d6b656;" parent="156" vertex="1">
                    <mxGeometry width="60" height="40" as="geometry">
                        <mxRectangle width="60" height="40" as="alternateBounds"/>
                    </mxGeometry>
                </mxCell>
                <mxCell id="158" value="3" style="shape=partialRectangle;html=1;whiteSpace=wrap;connectable=0;overflow=hidden;fillColor=none;top=0;left=0;bottom=0;right=0;pointerEvents=1;" parent="156" vertex="1">
                    <mxGeometry x="60" width="60" height="40" as="geometry">
                        <mxRectangle width="60" height="40" as="alternateBounds"/>
                    </mxGeometry>
                </mxCell>
                <mxCell id="159" value="" style="shape=partialRectangle;collapsible=0;dropTarget=0;pointerEvents=0;fillColor=none;top=0;left=0;bottom=0;right=0;points=[[0,0.5],[1,0.5]];portConstraint=eastwest;" parent="146" vertex="1">
                    <mxGeometry y="160" width="120" height="40" as="geometry"/>
                </mxCell>
                <mxCell id="160" value="1" style="shape=partialRectangle;html=1;whiteSpace=wrap;connectable=0;overflow=hidden;fillColor=#dae8fc;top=0;left=0;bottom=0;right=0;pointerEvents=1;strokeColor=#6c8ebf;" parent="159" vertex="1">
                    <mxGeometry width="60" height="40" as="geometry">
                        <mxRectangle width="60" height="40" as="alternateBounds"/>
                    </mxGeometry>
                </mxCell>
                <mxCell id="161" value="4" style="shape=partialRectangle;html=1;whiteSpace=wrap;connectable=0;overflow=hidden;fillColor=none;top=0;left=0;bottom=0;right=0;pointerEvents=1;" parent="159" vertex="1">
                    <mxGeometry x="60" width="60" height="40" as="geometry">
                        <mxRectangle width="60" height="40" as="alternateBounds"/>
                    </mxGeometry>
                </mxCell>
                <mxCell id="162" value="" style="shape=table;startSize=0;container=1;collapsible=0;childLayout=tableLayout;" parent="1" vertex="1">
                    <mxGeometry x="514" y="1500" width="60" height="160" as="geometry"/>
                </mxCell>
                <mxCell id="163" value="" style="shape=partialRectangle;collapsible=0;dropTarget=0;pointerEvents=0;fillColor=none;top=0;left=0;bottom=0;right=0;points=[[0,0.5],[1,0.5]];portConstraint=eastwest;" parent="162" vertex="1">
                    <mxGeometry width="60" height="40" as="geometry"/>
                </mxCell>
                <mxCell id="164" value="5" style="shape=partialRectangle;html=1;whiteSpace=wrap;connectable=0;overflow=hidden;fillColor=#dae8fc;top=0;left=0;bottom=0;right=0;pointerEvents=1;strokeColor=#6c8ebf;" parent="163" vertex="1">
                    <mxGeometry width="60" height="40" as="geometry">
                        <mxRectangle width="60" height="40" as="alternateBounds"/>
                    </mxGeometry>
                </mxCell>
                <mxCell id="165" value="" style="shape=partialRectangle;collapsible=0;dropTarget=0;pointerEvents=0;fillColor=none;top=0;left=0;bottom=0;right=0;points=[[0,0.5],[1,0.5]];portConstraint=eastwest;" parent="162" vertex="1">
                    <mxGeometry y="40" width="60" height="40" as="geometry"/>
                </mxCell>
                <mxCell id="166" value="1" style="shape=partialRectangle;html=1;whiteSpace=wrap;connectable=0;overflow=hidden;fillColor=#d5e8d4;top=0;left=0;bottom=0;right=0;pointerEvents=1;strokeColor=#82b366;dashed=1;" parent="165" vertex="1">
                    <mxGeometry width="60" height="40" as="geometry">
                        <mxRectangle width="60" height="40" as="alternateBounds"/>
                    </mxGeometry>
                </mxCell>
                <mxCell id="167" value="" style="shape=partialRectangle;collapsible=0;dropTarget=0;pointerEvents=0;fillColor=none;top=0;left=0;bottom=0;right=0;points=[[0,0.5],[1,0.5]];portConstraint=eastwest;" parent="162" vertex="1">
                    <mxGeometry y="80" width="60" height="40" as="geometry"/>
                </mxCell>
                <mxCell id="168" value="2" style="shape=partialRectangle;html=1;whiteSpace=wrap;connectable=0;overflow=hidden;fillColor=#dae8fc;top=0;left=0;bottom=0;right=0;pointerEvents=1;strokeColor=#6c8ebf;" parent="167" vertex="1">
                    <mxGeometry width="60" height="40" as="geometry">
                        <mxRectangle width="60" height="40" as="alternateBounds"/>
                    </mxGeometry>
                </mxCell>
                <mxCell id="169" value="" style="shape=partialRectangle;collapsible=0;dropTarget=0;pointerEvents=0;fillColor=none;top=0;left=0;bottom=0;right=0;points=[[0,0.5],[1,0.5]];portConstraint=eastwest;" parent="162" vertex="1">
                    <mxGeometry y="120" width="60" height="40" as="geometry"/>
                </mxCell>
                <mxCell id="170" value="8" style="shape=partialRectangle;html=1;whiteSpace=wrap;connectable=0;overflow=hidden;fillColor=#fff2cc;top=0;left=0;bottom=0;right=0;pointerEvents=1;strokeColor=#d6b656;" parent="169" vertex="1">
                    <mxGeometry width="60" height="40" as="geometry">
                        <mxRectangle width="60" height="40" as="alternateBounds"/>
                    </mxGeometry>
                </mxCell>
                <mxCell id="171" style="edgeStyle=none;html=1;entryX=1;entryY=0.5;entryDx=0;entryDy=0;exitX=1;exitY=0.25;exitDx=0;exitDy=0;exitPerimeter=0;" parent="162" target="165" edge="1">
                    <mxGeometry relative="1" as="geometry">
                        <Array as="points">
                            <mxPoint x="119" y="120"/>
                        </Array>
                    </mxGeometry>
                </mxCell>
                <mxCell id="174" style="edgeStyle=none;html=1;entryX=0;entryY=0.5;entryDx=0;entryDy=0;" parent="1" source="147" target="163" edge="1">
                    <mxGeometry relative="1" as="geometry"/>
                </mxCell>
                <mxCell id="175" style="edgeStyle=none;html=1;entryX=0;entryY=0.5;entryDx=0;entryDy=0;" parent="1" source="153" target="167" edge="1">
                    <mxGeometry relative="1" as="geometry"/>
                </mxCell>
                <mxCell id="176" style="edgeStyle=none;html=1;entryX=0;entryY=0.5;entryDx=0;entryDy=0;" parent="1" source="156" target="169" edge="1">
                    <mxGeometry relative="1" as="geometry"/>
                </mxCell>
                <mxCell id="177" style="edgeStyle=none;html=1;entryX=0;entryY=0.5;entryDx=0;entryDy=0;" parent="1" source="159" edge="1">
                    <mxGeometry relative="1" as="geometry"/>
                </mxCell>
                <mxCell id="178" value="Remove the last element from the List" style="text;html=1;strokeColor=#b85450;fillColor=#f8cecc;align=center;verticalAlign=middle;whiteSpace=wrap;rounded=0;" parent="1" vertex="1">
                    <mxGeometry x="262" y="1740" width="320" height="30" as="geometry"/>
                </mxCell>
                <mxCell id="179" value="Remove the mapping of teh last&amp;nbsp; element from the Map" style="text;html=1;strokeColor=#b85450;fillColor=#f8cecc;align=center;verticalAlign=middle;whiteSpace=wrap;rounded=0;" parent="1" vertex="1">
                    <mxGeometry x="264" y="1780" width="320" height="30" as="geometry"/>
                </mxCell>
                <mxCell id="180" value="" style="endArrow=none;html=1;strokeColor=#FF3333;strokeWidth=4;" parent="1" edge="1">
                    <mxGeometry width="50" height="50" relative="1" as="geometry">
                        <mxPoint x="220" y="1680" as="sourcePoint"/>
                        <mxPoint x="430" y="1680" as="targetPoint"/>
                    </mxGeometry>
                </mxCell>
                <mxCell id="181" value="" style="shape=table;startSize=0;container=1;collapsible=0;childLayout=tableLayout;" parent="1" vertex="1">
                    <mxGeometry x="270" y="1840" width="120" height="160" as="geometry"/>
                </mxCell>
                <mxCell id="182" value="" style="shape=partialRectangle;collapsible=0;dropTarget=0;pointerEvents=0;fillColor=none;top=0;left=0;bottom=0;right=0;points=[[0,0.5],[1,0.5]];portConstraint=eastwest;" parent="181" vertex="1">
                    <mxGeometry width="120" height="40" as="geometry"/>
                </mxCell>
                <mxCell id="183" value="5" style="shape=partialRectangle;html=1;whiteSpace=wrap;connectable=0;overflow=hidden;fillColor=#dae8fc;top=0;left=0;bottom=0;right=0;pointerEvents=1;strokeColor=default;" parent="182" vertex="1">
                    <mxGeometry width="60" height="40" as="geometry">
                        <mxRectangle width="60" height="40" as="alternateBounds"/>
                    </mxGeometry>
                </mxCell>
                <mxCell id="184" value="0" style="shape=partialRectangle;html=1;whiteSpace=wrap;connectable=0;overflow=hidden;fillColor=none;top=0;left=0;bottom=0;right=0;pointerEvents=1;" parent="182" vertex="1">
                    <mxGeometry x="60" width="60" height="40" as="geometry">
                        <mxRectangle width="60" height="40" as="alternateBounds"/>
                    </mxGeometry>
                </mxCell>
                <mxCell id="185" value="" style="shape=partialRectangle;collapsible=0;dropTarget=0;pointerEvents=0;fillColor=none;top=0;left=0;bottom=0;right=0;points=[[0,0.5],[1,0.5]];portConstraint=eastwest;" parent="181" vertex="1">
                    <mxGeometry y="40" width="120" height="40" as="geometry"/>
                </mxCell>
                <mxCell id="186" value="1" style="shape=partialRectangle;html=1;whiteSpace=wrap;connectable=0;overflow=hidden;fillColor=#fff2cc;top=0;left=0;bottom=0;right=0;pointerEvents=1;strokeColor=#d6b656;" parent="185" vertex="1">
                    <mxGeometry width="60" height="40" as="geometry">
                        <mxRectangle width="60" height="40" as="alternateBounds"/>
                    </mxGeometry>
                </mxCell>
                <mxCell id="187" value="1" style="shape=partialRectangle;html=1;whiteSpace=wrap;connectable=0;overflow=hidden;fillColor=none;top=0;left=0;bottom=0;right=0;pointerEvents=1;" parent="185" vertex="1">
                    <mxGeometry x="60" width="60" height="40" as="geometry">
                        <mxRectangle width="60" height="40" as="alternateBounds"/>
                    </mxGeometry>
                </mxCell>
                <mxCell id="188" value="" style="shape=partialRectangle;collapsible=0;dropTarget=0;pointerEvents=0;fillColor=none;top=0;left=0;bottom=0;right=0;points=[[0,0.5],[1,0.5]];portConstraint=eastwest;" parent="181" vertex="1">
                    <mxGeometry y="80" width="120" height="40" as="geometry"/>
                </mxCell>
                <mxCell id="189" value="2" style="shape=partialRectangle;html=1;whiteSpace=wrap;connectable=0;overflow=hidden;fillColor=#dae8fc;top=0;left=0;bottom=0;right=0;pointerEvents=1;strokeColor=#6c8ebf;" parent="188" vertex="1">
                    <mxGeometry width="60" height="40" as="geometry">
                        <mxRectangle width="60" height="40" as="alternateBounds"/>
                    </mxGeometry>
                </mxCell>
                <mxCell id="190" value="2" style="shape=partialRectangle;html=1;whiteSpace=wrap;connectable=0;overflow=hidden;fillColor=none;top=0;left=0;bottom=0;right=0;pointerEvents=1;" parent="188" vertex="1">
                    <mxGeometry x="60" width="60" height="40" as="geometry">
                        <mxRectangle width="60" height="40" as="alternateBounds"/>
                    </mxGeometry>
                </mxCell>
                <mxCell id="191" value="" style="shape=partialRectangle;collapsible=0;dropTarget=0;pointerEvents=0;fillColor=none;top=0;left=0;bottom=0;right=0;points=[[0,0.5],[1,0.5]];portConstraint=eastwest;" parent="181" vertex="1">
                    <mxGeometry y="120" width="120" height="40" as="geometry"/>
                </mxCell>
                <mxCell id="192" value="8" style="shape=partialRectangle;html=1;whiteSpace=wrap;connectable=0;overflow=hidden;fillColor=#fff2cc;top=0;left=0;bottom=0;right=0;pointerEvents=1;strokeColor=#d6b656;" parent="191" vertex="1">
                    <mxGeometry width="60" height="40" as="geometry">
                        <mxRectangle width="60" height="40" as="alternateBounds"/>
                    </mxGeometry>
                </mxCell>
                <mxCell id="193" value="3" style="shape=partialRectangle;html=1;whiteSpace=wrap;connectable=0;overflow=hidden;fillColor=none;top=0;left=0;bottom=0;right=0;pointerEvents=1;" parent="191" vertex="1">
                    <mxGeometry x="60" width="60" height="40" as="geometry">
                        <mxRectangle width="60" height="40" as="alternateBounds"/>
                    </mxGeometry>
                </mxCell>
                <mxCell id="197" value="" style="shape=table;startSize=0;container=1;collapsible=0;childLayout=tableLayout;" parent="1" vertex="1">
                    <mxGeometry x="520" y="1840" width="60" height="160" as="geometry"/>
                </mxCell>
                <mxCell id="198" value="" style="shape=partialRectangle;collapsible=0;dropTarget=0;pointerEvents=0;fillColor=none;top=0;left=0;bottom=0;right=0;points=[[0,0.5],[1,0.5]];portConstraint=eastwest;" parent="197" vertex="1">
                    <mxGeometry width="60" height="40" as="geometry"/>
                </mxCell>
                <mxCell id="199" value="5" style="shape=partialRectangle;html=1;whiteSpace=wrap;connectable=0;overflow=hidden;fillColor=#dae8fc;top=0;left=0;bottom=0;right=0;pointerEvents=1;strokeColor=#6c8ebf;" parent="198" vertex="1">
                    <mxGeometry width="60" height="40" as="geometry">
                        <mxRectangle width="60" height="40" as="alternateBounds"/>
                    </mxGeometry>
                </mxCell>
                <mxCell id="200" value="" style="shape=partialRectangle;collapsible=0;dropTarget=0;pointerEvents=0;fillColor=none;top=0;left=0;bottom=0;right=0;points=[[0,0.5],[1,0.5]];portConstraint=eastwest;" parent="197" vertex="1">
                    <mxGeometry y="40" width="60" height="40" as="geometry"/>
                </mxCell>
                <mxCell id="201" value="1" style="shape=partialRectangle;html=1;whiteSpace=wrap;connectable=0;overflow=hidden;fillColor=#d5e8d4;top=0;left=0;bottom=0;right=0;pointerEvents=1;strokeColor=#82b366;dashed=1;" parent="200" vertex="1">
                    <mxGeometry width="60" height="40" as="geometry">
                        <mxRectangle width="60" height="40" as="alternateBounds"/>
                    </mxGeometry>
                </mxCell>
                <mxCell id="202" value="" style="shape=partialRectangle;collapsible=0;dropTarget=0;pointerEvents=0;fillColor=none;top=0;left=0;bottom=0;right=0;points=[[0,0.5],[1,0.5]];portConstraint=eastwest;" parent="197" vertex="1">
                    <mxGeometry y="80" width="60" height="40" as="geometry"/>
                </mxCell>
                <mxCell id="203" value="2" style="shape=partialRectangle;html=1;whiteSpace=wrap;connectable=0;overflow=hidden;fillColor=#dae8fc;top=0;left=0;bottom=0;right=0;pointerEvents=1;strokeColor=#6c8ebf;" parent="202" vertex="1">
                    <mxGeometry width="60" height="40" as="geometry">
                        <mxRectangle width="60" height="40" as="alternateBounds"/>
                    </mxGeometry>
                </mxCell>
                <mxCell id="204" value="" style="shape=partialRectangle;collapsible=0;dropTarget=0;pointerEvents=0;fillColor=none;top=0;left=0;bottom=0;right=0;points=[[0,0.5],[1,0.5]];portConstraint=eastwest;" parent="197" vertex="1">
                    <mxGeometry y="120" width="60" height="40" as="geometry"/>
                </mxCell>
                <mxCell id="205" value="8" style="shape=partialRectangle;html=1;whiteSpace=wrap;connectable=0;overflow=hidden;fillColor=#fff2cc;top=0;left=0;bottom=0;right=0;pointerEvents=1;strokeColor=#d6b656;" parent="204" vertex="1">
                    <mxGeometry width="60" height="40" as="geometry">
                        <mxRectangle width="60" height="40" as="alternateBounds"/>
                    </mxGeometry>
                </mxCell>
                <mxCell id="206" style="edgeStyle=none;html=1;entryX=1;entryY=0.5;entryDx=0;entryDy=0;exitX=1;exitY=0.25;exitDx=0;exitDy=0;exitPerimeter=0;" parent="197" target="200" edge="1">
                    <mxGeometry relative="1" as="geometry">
                        <Array as="points">
                            <mxPoint x="119" y="120"/>
                        </Array>
                    </mxGeometry>
                </mxCell>
                <mxCell id="207" style="edgeStyle=none;html=1;entryX=0;entryY=0.5;entryDx=0;entryDy=0;" parent="1" source="182" target="198" edge="1">
                    <mxGeometry relative="1" as="geometry"/>
                </mxCell>
                <mxCell id="208" style="edgeStyle=none;html=1;entryX=0;entryY=0.5;entryDx=0;entryDy=0;" parent="1" source="188" target="202" edge="1">
                    <mxGeometry relative="1" as="geometry"/>
                </mxCell>
                <mxCell id="209" style="edgeStyle=none;html=1;entryX=0;entryY=0.5;entryDx=0;entryDy=0;" parent="1" source="191" target="204" edge="1">
                    <mxGeometry relative="1" as="geometry"/>
                </mxCell>
                <mxCell id="211" value="Update the mapping for adjusted element" style="text;html=1;strokeColor=#b85450;fillColor=#f8cecc;align=center;verticalAlign=middle;whiteSpace=wrap;rounded=0;" parent="1" vertex="1">
                    <mxGeometry x="280" y="2040" width="320" height="30" as="geometry"/>
                </mxCell>
                <mxCell id="212" style="edgeStyle=none;html=1;entryX=0;entryY=0.5;entryDx=0;entryDy=0;strokeColor=#6c8ebf;strokeWidth=4;fillColor=#dae8fc;" parent="1" source="185" target="200" edge="1">
                    <mxGeometry relative="1" as="geometry"/>
                </mxCell>
            </root>
        </mxGraphModel>
    </diagram>
    <diagram id="pprvHiGa6wqThbS1apHR" name="Page-2">
        <mxGraphModel dx="731" dy="512" grid="1" gridSize="10" guides="1" tooltips="1" connect="1" arrows="1" fold="1" page="1" pageScale="1" pageWidth="827" pageHeight="1169" math="0" shadow="0">
            <root>
                <mxCell id="Gej--ZpZtiSmU6rXCRRL-0"/>
                <mxCell id="Gej--ZpZtiSmU6rXCRRL-1" parent="Gej--ZpZtiSmU6rXCRRL-0"/>
                <mxCell id="Gej--ZpZtiSmU6rXCRRL-4" value="A,A,B" style="text;html=1;strokeColor=#9673a6;fillColor=#e1d5e7;align=center;verticalAlign=middle;whiteSpace=wrap;rounded=0;" parent="Gej--ZpZtiSmU6rXCRRL-1" vertex="1">
                    <mxGeometry x="210" y="70" width="60" height="30" as="geometry"/>
                </mxCell>
                <mxCell id="Gej--ZpZtiSmU6rXCRRL-5" value="Tasks" style="text;html=1;strokeColor=#666666;fillColor=#f5f5f5;align=center;verticalAlign=middle;whiteSpace=wrap;rounded=0;fontColor=#333333;" parent="Gej--ZpZtiSmU6rXCRRL-1" vertex="1">
                    <mxGeometry x="80" y="70" width="60" height="30" as="geometry"/>
                </mxCell>
                <mxCell id="Gej--ZpZtiSmU6rXCRRL-6" value="Cool Down Period" style="text;html=1;strokeColor=#666666;fillColor=#f5f5f5;align=center;verticalAlign=middle;whiteSpace=wrap;rounded=0;fontColor=#333333;" parent="Gej--ZpZtiSmU6rXCRRL-1" vertex="1">
                    <mxGeometry x="10" y="105" width="130" height="30" as="geometry"/>
                </mxCell>
                <mxCell id="Gej--ZpZtiSmU6rXCRRL-8" value="1" style="text;html=1;strokeColor=#9673a6;fillColor=#e1d5e7;align=center;verticalAlign=middle;whiteSpace=wrap;rounded=0;" parent="Gej--ZpZtiSmU6rXCRRL-1" vertex="1">
                    <mxGeometry x="209" y="105" width="60" height="30" as="geometry"/>
                </mxCell>
                <mxCell id="Gej--ZpZtiSmU6rXCRRL-9" value="" style="shape=table;startSize=0;container=1;collapsible=0;childLayout=tableLayout;" parent="Gej--ZpZtiSmU6rXCRRL-1" vertex="1">
                    <mxGeometry x="160" y="170" width="120" height="80" as="geometry"/>
                </mxCell>
                <mxCell id="Gej--ZpZtiSmU6rXCRRL-10" value="" style="shape=partialRectangle;collapsible=0;dropTarget=0;pointerEvents=0;fillColor=none;top=0;left=0;bottom=0;right=0;points=[[0,0.5],[1,0.5]];portConstraint=eastwest;" parent="Gej--ZpZtiSmU6rXCRRL-9" vertex="1">
                    <mxGeometry width="120" height="40" as="geometry"/>
                </mxCell>
                <mxCell id="Gej--ZpZtiSmU6rXCRRL-11" value="A" style="shape=partialRectangle;html=1;whiteSpace=wrap;connectable=0;overflow=hidden;fillColor=none;top=0;left=0;bottom=0;right=0;pointerEvents=1;" parent="Gej--ZpZtiSmU6rXCRRL-10" vertex="1">
                    <mxGeometry width="60" height="40" as="geometry">
                        <mxRectangle width="60" height="40" as="alternateBounds"/>
                    </mxGeometry>
                </mxCell>
                <mxCell id="Gej--ZpZtiSmU6rXCRRL-12" value="2" style="shape=partialRectangle;html=1;whiteSpace=wrap;connectable=0;overflow=hidden;fillColor=none;top=0;left=0;bottom=0;right=0;pointerEvents=1;" parent="Gej--ZpZtiSmU6rXCRRL-10" vertex="1">
                    <mxGeometry x="60" width="60" height="40" as="geometry">
                        <mxRectangle width="60" height="40" as="alternateBounds"/>
                    </mxGeometry>
                </mxCell>
                <mxCell id="Gej--ZpZtiSmU6rXCRRL-13" value="" style="shape=partialRectangle;collapsible=0;dropTarget=0;pointerEvents=0;fillColor=none;top=0;left=0;bottom=0;right=0;points=[[0,0.5],[1,0.5]];portConstraint=eastwest;" parent="Gej--ZpZtiSmU6rXCRRL-9" vertex="1">
                    <mxGeometry y="40" width="120" height="40" as="geometry"/>
                </mxCell>
                <mxCell id="Gej--ZpZtiSmU6rXCRRL-14" value="B" style="shape=partialRectangle;html=1;whiteSpace=wrap;connectable=0;overflow=hidden;fillColor=none;top=0;left=0;bottom=0;right=0;pointerEvents=1;" parent="Gej--ZpZtiSmU6rXCRRL-13" vertex="1">
                    <mxGeometry width="60" height="40" as="geometry">
                        <mxRectangle width="60" height="40" as="alternateBounds"/>
                    </mxGeometry>
                </mxCell>
                <mxCell id="Gej--ZpZtiSmU6rXCRRL-15" value="1" style="shape=partialRectangle;html=1;whiteSpace=wrap;connectable=0;overflow=hidden;fillColor=none;top=0;left=0;bottom=0;right=0;pointerEvents=1;" parent="Gej--ZpZtiSmU6rXCRRL-13" vertex="1">
                    <mxGeometry x="60" width="60" height="40" as="geometry">
                        <mxRectangle width="60" height="40" as="alternateBounds"/>
                    </mxGeometry>
                </mxCell>
                <mxCell id="Gej--ZpZtiSmU6rXCRRL-16" value="Frequency Map" style="text;html=1;strokeColor=#666666;fillColor=#f5f5f5;align=center;verticalAlign=middle;whiteSpace=wrap;rounded=0;fontColor=#333333;" parent="Gej--ZpZtiSmU6rXCRRL-1" vertex="1">
                    <mxGeometry x="10" y="170" width="130" height="30" as="geometry"/>
                </mxCell>
                <mxCell id="Gej--ZpZtiSmU6rXCRRL-17" value="If we start with task of &lt;b&gt;High&lt;/b&gt; frequency" style="text;html=1;strokeColor=#666666;fillColor=#f5f5f5;align=center;verticalAlign=middle;whiteSpace=wrap;rounded=0;fontColor=#333333;" parent="Gej--ZpZtiSmU6rXCRRL-1" vertex="1">
                    <mxGeometry x="10" y="310" width="130" height="30" as="geometry"/>
                </mxCell>
                <mxCell id="Gej--ZpZtiSmU6rXCRRL-18" value="A" style="text;html=1;strokeColor=none;fillColor=none;align=center;verticalAlign=middle;whiteSpace=wrap;rounded=0;" parent="Gej--ZpZtiSmU6rXCRRL-1" vertex="1">
                    <mxGeometry x="190" y="310" width="60" height="30" as="geometry"/>
                </mxCell>
                <mxCell id="Gej--ZpZtiSmU6rXCRRL-19" value="B" style="text;html=1;strokeColor=none;fillColor=none;align=center;verticalAlign=middle;whiteSpace=wrap;rounded=0;" parent="Gej--ZpZtiSmU6rXCRRL-1" vertex="1">
                    <mxGeometry x="260" y="310" width="60" height="30" as="geometry"/>
                </mxCell>
                <mxCell id="Gej--ZpZtiSmU6rXCRRL-20" value="A" style="text;html=1;strokeColor=none;fillColor=none;align=center;verticalAlign=middle;whiteSpace=wrap;rounded=0;" parent="Gej--ZpZtiSmU6rXCRRL-1" vertex="1">
                    <mxGeometry x="330" y="310" width="60" height="30" as="geometry"/>
                </mxCell>
                <mxCell id="Gej--ZpZtiSmU6rXCRRL-21" value="Time" style="text;html=1;strokeColor=#82b366;fillColor=#d5e8d4;align=center;verticalAlign=middle;whiteSpace=wrap;rounded=0;" parent="Gej--ZpZtiSmU6rXCRRL-1" vertex="1">
                    <mxGeometry x="420" y="310" width="60" height="30" as="geometry"/>
                </mxCell>
                <mxCell id="Gej--ZpZtiSmU6rXCRRL-22" value="3" style="text;html=1;strokeColor=none;fillColor=none;align=center;verticalAlign=middle;whiteSpace=wrap;rounded=0;" parent="Gej--ZpZtiSmU6rXCRRL-1" vertex="1">
                    <mxGeometry x="500" y="310" width="60" height="30" as="geometry"/>
                </mxCell>
                <mxCell id="Gej--ZpZtiSmU6rXCRRL-23" value="If we start with task of &lt;b&gt;Low&lt;/b&gt; frequency" style="text;html=1;strokeColor=#666666;fillColor=#f5f5f5;align=center;verticalAlign=middle;whiteSpace=wrap;rounded=0;fontColor=#333333;" parent="Gej--ZpZtiSmU6rXCRRL-1" vertex="1">
                    <mxGeometry x="10" y="360" width="130" height="30" as="geometry"/>
                </mxCell>
                <mxCell id="Gej--ZpZtiSmU6rXCRRL-24" value="B" style="text;html=1;strokeColor=none;fillColor=none;align=center;verticalAlign=middle;whiteSpace=wrap;rounded=0;" parent="Gej--ZpZtiSmU6rXCRRL-1" vertex="1">
                    <mxGeometry x="190" y="360" width="60" height="30" as="geometry"/>
                </mxCell>
                <mxCell id="Gej--ZpZtiSmU6rXCRRL-25" value="A" style="text;html=1;strokeColor=none;fillColor=none;align=center;verticalAlign=middle;whiteSpace=wrap;rounded=0;" parent="Gej--ZpZtiSmU6rXCRRL-1" vertex="1">
                    <mxGeometry x="260" y="360" width="60" height="30" as="geometry"/>
                </mxCell>
                <mxCell id="Gej--ZpZtiSmU6rXCRRL-26" value="A" style="text;html=1;strokeColor=none;fillColor=none;align=center;verticalAlign=middle;whiteSpace=wrap;rounded=0;" parent="Gej--ZpZtiSmU6rXCRRL-1" vertex="1">
                    <mxGeometry x="360" y="360" width="60" height="30" as="geometry"/>
                </mxCell>
                <mxCell id="Gej--ZpZtiSmU6rXCRRL-27" value="Time" style="text;html=1;strokeColor=#b85450;fillColor=#f8cecc;align=center;verticalAlign=middle;whiteSpace=wrap;rounded=0;" parent="Gej--ZpZtiSmU6rXCRRL-1" vertex="1">
                    <mxGeometry x="420" y="360" width="60" height="30" as="geometry"/>
                </mxCell>
                <mxCell id="Gej--ZpZtiSmU6rXCRRL-28" value="4" style="text;html=1;strokeColor=none;fillColor=none;align=center;verticalAlign=middle;whiteSpace=wrap;rounded=0;" parent="Gej--ZpZtiSmU6rXCRRL-1" vertex="1">
                    <mxGeometry x="500" y="360" width="60" height="30" as="geometry"/>
                </mxCell>
                <mxCell id="Gej--ZpZtiSmU6rXCRRL-29" value="Cooldown" style="text;html=1;strokeColor=none;fillColor=none;align=center;verticalAlign=middle;whiteSpace=wrap;rounded=0;" parent="Gej--ZpZtiSmU6rXCRRL-1" vertex="1">
                    <mxGeometry x="310" y="360" width="60" height="30" as="geometry"/>
                </mxCell>
                <mxCell id="Gej--ZpZtiSmU6rXCRRL-30" value="We should always pick the task with High Frequency&amp;nbsp;" style="text;html=1;strokeColor=#6c8ebf;fillColor=#dae8fc;align=center;verticalAlign=middle;whiteSpace=wrap;rounded=0;" parent="Gej--ZpZtiSmU6rXCRRL-1" vertex="1">
                    <mxGeometry x="40" y="420" width="490" height="30" as="geometry"/>
                </mxCell>
            </root>
        </mxGraphModel>
    </diagram>
    <diagram id="lKZ9OZkqQBPlsFEnuR9B" name="Page-3">
        <mxGraphModel dx="469" dy="512" grid="1" gridSize="10" guides="1" tooltips="1" connect="1" arrows="1" fold="1" page="1" pageScale="1" pageWidth="827" pageHeight="1169" math="0" shadow="0">
            <root>
                <mxCell id="mXR4Z3394ZyEQmjUcE1d-0"/>
                <mxCell id="mXR4Z3394ZyEQmjUcE1d-1" parent="mXR4Z3394ZyEQmjUcE1d-0"/>
                <mxCell id="mXR4Z3394ZyEQmjUcE1d-3" value="1" style="shape=agent;offsetSize=8;strokeWidth=2;fontSize=18;" parent="mXR4Z3394ZyEQmjUcE1d-1" vertex="1">
                    <mxGeometry x="160" y="240" width="100" height="60" as="geometry"/>
                </mxCell>
                <mxCell id="mXR4Z3394ZyEQmjUcE1d-4" value="2" style="shape=agent;offsetSize=8;strokeWidth=2;fontSize=18;" parent="mXR4Z3394ZyEQmjUcE1d-1" vertex="1">
                    <mxGeometry x="260" y="240" width="100" height="60" as="geometry"/>
                </mxCell>
                <mxCell id="mXR4Z3394ZyEQmjUcE1d-5" value="3" style="shape=agent;offsetSize=8;strokeWidth=2;fontSize=18;" parent="mXR4Z3394ZyEQmjUcE1d-1" vertex="1">
                    <mxGeometry x="360" y="240" width="100" height="60" as="geometry"/>
                </mxCell>
                <mxCell id="mXR4Z3394ZyEQmjUcE1d-6" value="4" style="shape=agent;offsetSize=8;strokeWidth=2;fontSize=18;" parent="mXR4Z3394ZyEQmjUcE1d-1" vertex="1">
                    <mxGeometry x="460" y="240" width="100" height="60" as="geometry"/>
                </mxCell>
                <mxCell id="mXR4Z3394ZyEQmjUcE1d-7" value="" style="shape=agent;offsetSize=8;strokeWidth=2;fontSize=18;" parent="mXR4Z3394ZyEQmjUcE1d-1" vertex="1">
                    <mxGeometry x="560" y="240" width="100" height="60" as="geometry"/>
                </mxCell>
                <mxCell id="mXR4Z3394ZyEQmjUcE1d-8" value="6" style="shape=agent;offsetSize=8;strokeWidth=2;fontSize=18;fillColor=#d5e8d4;strokeColor=#82b366;" parent="mXR4Z3394ZyEQmjUcE1d-1" vertex="1">
                    <mxGeometry x="660" y="240" width="100" height="60" as="geometry"/>
                </mxCell>
                <mxCell id="mXR4Z3394ZyEQmjUcE1d-9" value="5" style="shape=agent;offsetSize=8;strokeWidth=2;fontSize=18;fillColor=#d5e8d4;strokeColor=#82b366;" parent="mXR4Z3394ZyEQmjUcE1d-1" vertex="1">
                    <mxGeometry x="560" y="240" width="100" height="60" as="geometry"/>
                </mxCell>
                <mxCell id="mXR4Z3394ZyEQmjUcE1d-10" value="1" style="shape=agent;offsetSize=8;strokeWidth=2;fontSize=18;fillColor=#d5e8d4;strokeColor=#82b366;" parent="mXR4Z3394ZyEQmjUcE1d-1" vertex="1">
                    <mxGeometry x="760" y="240" width="100" height="60" as="geometry"/>
                </mxCell>
                <mxCell id="mXR4Z3394ZyEQmjUcE1d-11" value="K = 3" style="text;html=1;strokeColor=none;fillColor=none;align=center;verticalAlign=middle;whiteSpace=wrap;rounded=0;fontSize=18;" parent="mXR4Z3394ZyEQmjUcE1d-1" vertex="1">
                    <mxGeometry x="160" y="80" width="70" height="40" as="geometry"/>
                </mxCell>
                <mxCell id="mXR4Z3394ZyEQmjUcE1d-12" value="we can take 3 elements from front or back or combined so that the sum is maximum" style="text;html=1;strokeColor=#9673a6;fillColor=#e1d5e7;align=center;verticalAlign=middle;whiteSpace=wrap;rounded=0;fontSize=18;" parent="mXR4Z3394ZyEQmjUcE1d-1" vertex="1">
                    <mxGeometry x="230" y="80" width="700" height="40" as="geometry"/>
                </mxCell>
                <mxCell id="mXR4Z3394ZyEQmjUcE1d-13" value="0" style="text;html=1;strokeColor=#666666;fillColor=#f5f5f5;align=center;verticalAlign=middle;whiteSpace=wrap;rounded=0;fontSize=12;fontColor=#333333;" parent="mXR4Z3394ZyEQmjUcE1d-1" vertex="1">
                    <mxGeometry x="160" y="240" width="40" height="20" as="geometry"/>
                </mxCell>
                <mxCell id="mXR4Z3394ZyEQmjUcE1d-14" value="1" style="text;html=1;strokeColor=#666666;fillColor=#f5f5f5;align=center;verticalAlign=middle;whiteSpace=wrap;rounded=0;fontSize=12;fontColor=#333333;" parent="mXR4Z3394ZyEQmjUcE1d-1" vertex="1">
                    <mxGeometry x="260" y="240" width="40" height="20" as="geometry"/>
                </mxCell>
                <mxCell id="mXR4Z3394ZyEQmjUcE1d-15" value="2" style="text;html=1;strokeColor=#666666;fillColor=#f5f5f5;align=center;verticalAlign=middle;whiteSpace=wrap;rounded=0;fontSize=12;fontColor=#333333;" parent="mXR4Z3394ZyEQmjUcE1d-1" vertex="1">
                    <mxGeometry x="360" y="240" width="40" height="20" as="geometry"/>
                </mxCell>
                <mxCell id="mXR4Z3394ZyEQmjUcE1d-16" value="3" style="text;html=1;strokeColor=#666666;fillColor=#f5f5f5;align=center;verticalAlign=middle;whiteSpace=wrap;rounded=0;fontSize=12;fontColor=#333333;" parent="mXR4Z3394ZyEQmjUcE1d-1" vertex="1">
                    <mxGeometry x="460" y="240" width="40" height="20" as="geometry"/>
                </mxCell>
                <mxCell id="mXR4Z3394ZyEQmjUcE1d-17" value="4" style="text;html=1;strokeColor=#666666;fillColor=#f5f5f5;align=center;verticalAlign=middle;whiteSpace=wrap;rounded=0;fontSize=12;fontColor=#333333;" parent="mXR4Z3394ZyEQmjUcE1d-1" vertex="1">
                    <mxGeometry x="560" y="240" width="40" height="20" as="geometry"/>
                </mxCell>
                <mxCell id="mXR4Z3394ZyEQmjUcE1d-18" value="5" style="text;html=1;strokeColor=#666666;fillColor=#f5f5f5;align=center;verticalAlign=middle;whiteSpace=wrap;rounded=0;fontSize=12;fontColor=#333333;" parent="mXR4Z3394ZyEQmjUcE1d-1" vertex="1">
                    <mxGeometry x="660" y="240" width="40" height="20" as="geometry"/>
                </mxCell>
                <mxCell id="mXR4Z3394ZyEQmjUcE1d-19" value="6" style="text;html=1;strokeColor=#666666;fillColor=#f5f5f5;align=center;verticalAlign=middle;whiteSpace=wrap;rounded=0;fontSize=12;fontColor=#333333;" parent="mXR4Z3394ZyEQmjUcE1d-1" vertex="1">
                    <mxGeometry x="760" y="240" width="40" height="20" as="geometry"/>
                </mxCell>
                <mxCell id="mXR4Z3394ZyEQmjUcE1d-20" value="n = 7" style="text;html=1;strokeColor=none;fillColor=none;align=center;verticalAlign=middle;whiteSpace=wrap;rounded=0;fontSize=18;" parent="mXR4Z3394ZyEQmjUcE1d-1" vertex="1">
                    <mxGeometry x="160" y="110" width="70" height="40" as="geometry"/>
                </mxCell>
                <mxCell id="mXR4Z3394ZyEQmjUcE1d-21" value="number of elements = 7" style="text;html=1;strokeColor=#9673a6;fillColor=#e1d5e7;align=left;verticalAlign=middle;whiteSpace=wrap;rounded=0;fontSize=18;" parent="mXR4Z3394ZyEQmjUcE1d-1" vertex="1">
                    <mxGeometry x="230" y="120" width="700" height="40" as="geometry"/>
                </mxCell>
                <mxCell id="mXR4Z3394ZyEQmjUcE1d-23" value="Sum : 12" style="text;html=1;strokeColor=#9673a6;fillColor=#e1d5e7;align=left;verticalAlign=middle;whiteSpace=wrap;rounded=0;fontSize=18;" parent="mXR4Z3394ZyEQmjUcE1d-1" vertex="1">
                    <mxGeometry x="490" y="330" width="130" height="40" as="geometry"/>
                </mxCell>
                <mxCell id="mXR4Z3394ZyEQmjUcE1d-24" value="Max Sum : 12" style="text;html=1;strokeColor=#9673a6;fillColor=#e1d5e7;align=left;verticalAlign=middle;whiteSpace=wrap;rounded=0;fontSize=18;" parent="mXR4Z3394ZyEQmjUcE1d-1" vertex="1">
                    <mxGeometry x="490" y="380" width="130" height="40" as="geometry"/>
                </mxCell>
                <mxCell id="mXR4Z3394ZyEQmjUcE1d-28" value="1" style="shape=agent;offsetSize=8;strokeWidth=2;fontSize=18;fillColor=#d5e8d4;strokeColor=#82b366;" parent="mXR4Z3394ZyEQmjUcE1d-1" vertex="1">
                    <mxGeometry x="160" y="520" width="100" height="60" as="geometry"/>
                </mxCell>
                <mxCell id="mXR4Z3394ZyEQmjUcE1d-29" value="2" style="shape=agent;offsetSize=8;strokeWidth=2;fontSize=18;" parent="mXR4Z3394ZyEQmjUcE1d-1" vertex="1">
                    <mxGeometry x="260" y="520" width="100" height="60" as="geometry"/>
                </mxCell>
                <mxCell id="mXR4Z3394ZyEQmjUcE1d-30" value="3" style="shape=agent;offsetSize=8;strokeWidth=2;fontSize=18;" parent="mXR4Z3394ZyEQmjUcE1d-1" vertex="1">
                    <mxGeometry x="360" y="520" width="100" height="60" as="geometry"/>
                </mxCell>
                <mxCell id="mXR4Z3394ZyEQmjUcE1d-31" value="4" style="shape=agent;offsetSize=8;strokeWidth=2;fontSize=18;" parent="mXR4Z3394ZyEQmjUcE1d-1" vertex="1">
                    <mxGeometry x="460" y="520" width="100" height="60" as="geometry"/>
                </mxCell>
                <mxCell id="mXR4Z3394ZyEQmjUcE1d-32" value="" style="shape=agent;offsetSize=8;strokeWidth=2;fontSize=18;" parent="mXR4Z3394ZyEQmjUcE1d-1" vertex="1">
                    <mxGeometry x="560" y="520" width="100" height="60" as="geometry"/>
                </mxCell>
                <mxCell id="mXR4Z3394ZyEQmjUcE1d-33" value="6" style="shape=agent;offsetSize=8;strokeWidth=2;fontSize=18;fillColor=#d5e8d4;strokeColor=#82b366;" parent="mXR4Z3394ZyEQmjUcE1d-1" vertex="1">
                    <mxGeometry x="660" y="520" width="100" height="60" as="geometry"/>
                </mxCell>
                <mxCell id="mXR4Z3394ZyEQmjUcE1d-34" value="5" style="shape=agent;offsetSize=8;strokeWidth=2;fontSize=18;fillColor=none;strokeColor=#82b366;" parent="mXR4Z3394ZyEQmjUcE1d-1" vertex="1">
                    <mxGeometry x="560" y="520" width="100" height="60" as="geometry"/>
                </mxCell>
                <mxCell id="mXR4Z3394ZyEQmjUcE1d-35" value="1" style="shape=agent;offsetSize=8;strokeWidth=2;fontSize=18;fillColor=#d5e8d4;strokeColor=#82b366;" parent="mXR4Z3394ZyEQmjUcE1d-1" vertex="1">
                    <mxGeometry x="760" y="520" width="100" height="60" as="geometry"/>
                </mxCell>
                <mxCell id="mXR4Z3394ZyEQmjUcE1d-36" value="0" style="text;html=1;strokeColor=#666666;fillColor=#f5f5f5;align=center;verticalAlign=middle;whiteSpace=wrap;rounded=0;fontSize=12;fontColor=#333333;" parent="mXR4Z3394ZyEQmjUcE1d-1" vertex="1">
                    <mxGeometry x="160" y="520" width="40" height="20" as="geometry"/>
                </mxCell>
                <mxCell id="mXR4Z3394ZyEQmjUcE1d-37" value="1" style="text;html=1;strokeColor=#666666;fillColor=#f5f5f5;align=center;verticalAlign=middle;whiteSpace=wrap;rounded=0;fontSize=12;fontColor=#333333;" parent="mXR4Z3394ZyEQmjUcE1d-1" vertex="1">
                    <mxGeometry x="260" y="520" width="40" height="20" as="geometry"/>
                </mxCell>
                <mxCell id="mXR4Z3394ZyEQmjUcE1d-38" value="2" style="text;html=1;strokeColor=#666666;fillColor=#f5f5f5;align=center;verticalAlign=middle;whiteSpace=wrap;rounded=0;fontSize=12;fontColor=#333333;" parent="mXR4Z3394ZyEQmjUcE1d-1" vertex="1">
                    <mxGeometry x="360" y="520" width="40" height="20" as="geometry"/>
                </mxCell>
                <mxCell id="mXR4Z3394ZyEQmjUcE1d-39" value="3" style="text;html=1;strokeColor=#666666;fillColor=#f5f5f5;align=center;verticalAlign=middle;whiteSpace=wrap;rounded=0;fontSize=12;fontColor=#333333;" parent="mXR4Z3394ZyEQmjUcE1d-1" vertex="1">
                    <mxGeometry x="460" y="520" width="40" height="20" as="geometry"/>
                </mxCell>
                <mxCell id="mXR4Z3394ZyEQmjUcE1d-40" value="4" style="text;html=1;strokeColor=#666666;fillColor=#f5f5f5;align=center;verticalAlign=middle;whiteSpace=wrap;rounded=0;fontSize=12;fontColor=#333333;" parent="mXR4Z3394ZyEQmjUcE1d-1" vertex="1">
                    <mxGeometry x="560" y="520" width="40" height="20" as="geometry"/>
                </mxCell>
                <mxCell id="mXR4Z3394ZyEQmjUcE1d-41" value="5" style="text;html=1;strokeColor=#666666;fillColor=#f5f5f5;align=center;verticalAlign=middle;whiteSpace=wrap;rounded=0;fontSize=12;fontColor=#333333;" parent="mXR4Z3394ZyEQmjUcE1d-1" vertex="1">
                    <mxGeometry x="660" y="520" width="40" height="20" as="geometry"/>
                </mxCell>
                <mxCell id="mXR4Z3394ZyEQmjUcE1d-42" value="6" style="text;html=1;strokeColor=#666666;fillColor=#f5f5f5;align=center;verticalAlign=middle;whiteSpace=wrap;rounded=0;fontSize=12;fontColor=#333333;" parent="mXR4Z3394ZyEQmjUcE1d-1" vertex="1">
                    <mxGeometry x="760" y="520" width="40" height="20" as="geometry"/>
                </mxCell>
                <mxCell id="mXR4Z3394ZyEQmjUcE1d-43" value="Sum : 12 - 5+1 = 8" style="text;html=1;strokeColor=#9673a6;fillColor=#e1d5e7;align=left;verticalAlign=middle;whiteSpace=wrap;rounded=0;fontSize=18;" parent="mXR4Z3394ZyEQmjUcE1d-1" vertex="1">
                    <mxGeometry x="490" y="610" width="130" height="40" as="geometry"/>
                </mxCell>
                <mxCell id="mXR4Z3394ZyEQmjUcE1d-44" value="Max Sum : 12" style="text;html=1;strokeColor=#9673a6;fillColor=#e1d5e7;align=left;verticalAlign=middle;whiteSpace=wrap;rounded=0;fontSize=18;" parent="mXR4Z3394ZyEQmjUcE1d-1" vertex="1">
                    <mxGeometry x="490" y="660" width="130" height="40" as="geometry"/>
                </mxCell>
                <mxCell id="mXR4Z3394ZyEQmjUcE1d-45" value="exclude = n -k = 4" style="text;html=1;strokeColor=none;fillColor=none;align=center;verticalAlign=middle;whiteSpace=wrap;rounded=0;fontSize=12;" parent="mXR4Z3394ZyEQmjUcE1d-1" vertex="1">
                    <mxGeometry x="520" y="470" width="110" height="30" as="geometry"/>
                </mxCell>
                <mxCell id="mXR4Z3394ZyEQmjUcE1d-47" value="include = 0" style="text;html=1;strokeColor=none;fillColor=none;align=center;verticalAlign=middle;whiteSpace=wrap;rounded=0;fontSize=12;" parent="mXR4Z3394ZyEQmjUcE1d-1" vertex="1">
                    <mxGeometry x="155" y="480" width="110" height="30" as="geometry"/>
                </mxCell>
                <mxCell id="mXR4Z3394ZyEQmjUcE1d-48" value="1" style="shape=agent;offsetSize=8;strokeWidth=2;fontSize=18;fillColor=#d5e8d4;strokeColor=#82b366;" parent="mXR4Z3394ZyEQmjUcE1d-1" vertex="1">
                    <mxGeometry x="160" y="760" width="100" height="60" as="geometry"/>
                </mxCell>
                <mxCell id="mXR4Z3394ZyEQmjUcE1d-49" value="2" style="shape=agent;offsetSize=8;strokeWidth=2;fontSize=18;fillColor=#d5e8d4;strokeColor=#82b366;" parent="mXR4Z3394ZyEQmjUcE1d-1" vertex="1">
                    <mxGeometry x="260" y="760" width="100" height="60" as="geometry"/>
                </mxCell>
                <mxCell id="mXR4Z3394ZyEQmjUcE1d-50" value="3" style="shape=agent;offsetSize=8;strokeWidth=2;fontSize=18;" parent="mXR4Z3394ZyEQmjUcE1d-1" vertex="1">
                    <mxGeometry x="360" y="760" width="100" height="60" as="geometry"/>
                </mxCell>
                <mxCell id="mXR4Z3394ZyEQmjUcE1d-51" value="4" style="shape=agent;offsetSize=8;strokeWidth=2;fontSize=18;" parent="mXR4Z3394ZyEQmjUcE1d-1" vertex="1">
                    <mxGeometry x="460" y="760" width="100" height="60" as="geometry"/>
                </mxCell>
                <mxCell id="mXR4Z3394ZyEQmjUcE1d-52" value="" style="shape=agent;offsetSize=8;strokeWidth=2;fontSize=18;" parent="mXR4Z3394ZyEQmjUcE1d-1" vertex="1">
                    <mxGeometry x="560" y="760" width="100" height="60" as="geometry"/>
                </mxCell>
                <mxCell id="mXR4Z3394ZyEQmjUcE1d-53" value="6" style="shape=agent;offsetSize=8;strokeWidth=2;fontSize=18;fillColor=none;strokeColor=#82b366;" parent="mXR4Z3394ZyEQmjUcE1d-1" vertex="1">
                    <mxGeometry x="660" y="760" width="100" height="60" as="geometry"/>
                </mxCell>
                <mxCell id="mXR4Z3394ZyEQmjUcE1d-54" value="5" style="shape=agent;offsetSize=8;strokeWidth=2;fontSize=18;fillColor=none;strokeColor=#82b366;" parent="mXR4Z3394ZyEQmjUcE1d-1" vertex="1">
                    <mxGeometry x="560" y="760" width="100" height="60" as="geometry"/>
                </mxCell>
                <mxCell id="mXR4Z3394ZyEQmjUcE1d-55" value="1" style="shape=agent;offsetSize=8;strokeWidth=2;fontSize=18;fillColor=#d5e8d4;strokeColor=#82b366;" parent="mXR4Z3394ZyEQmjUcE1d-1" vertex="1">
                    <mxGeometry x="760" y="760" width="100" height="60" as="geometry"/>
                </mxCell>
                <mxCell id="mXR4Z3394ZyEQmjUcE1d-56" value="0" style="text;html=1;strokeColor=#666666;fillColor=#f5f5f5;align=center;verticalAlign=middle;whiteSpace=wrap;rounded=0;fontSize=12;fontColor=#333333;" parent="mXR4Z3394ZyEQmjUcE1d-1" vertex="1">
                    <mxGeometry x="160" y="760" width="40" height="20" as="geometry"/>
                </mxCell>
                <mxCell id="mXR4Z3394ZyEQmjUcE1d-57" value="1" style="text;html=1;strokeColor=#666666;fillColor=#f5f5f5;align=center;verticalAlign=middle;whiteSpace=wrap;rounded=0;fontSize=12;fontColor=#333333;" parent="mXR4Z3394ZyEQmjUcE1d-1" vertex="1">
                    <mxGeometry x="260" y="760" width="40" height="20" as="geometry"/>
                </mxCell>
                <mxCell id="mXR4Z3394ZyEQmjUcE1d-58" value="2" style="text;html=1;strokeColor=#666666;fillColor=#f5f5f5;align=center;verticalAlign=middle;whiteSpace=wrap;rounded=0;fontSize=12;fontColor=#333333;" parent="mXR4Z3394ZyEQmjUcE1d-1" vertex="1">
                    <mxGeometry x="360" y="760" width="40" height="20" as="geometry"/>
                </mxCell>
                <mxCell id="mXR4Z3394ZyEQmjUcE1d-59" value="3" style="text;html=1;strokeColor=#666666;fillColor=#f5f5f5;align=center;verticalAlign=middle;whiteSpace=wrap;rounded=0;fontSize=12;fontColor=#333333;" parent="mXR4Z3394ZyEQmjUcE1d-1" vertex="1">
                    <mxGeometry x="460" y="760" width="40" height="20" as="geometry"/>
                </mxCell>
                <mxCell id="mXR4Z3394ZyEQmjUcE1d-60" value="4" style="text;html=1;strokeColor=#666666;fillColor=#f5f5f5;align=center;verticalAlign=middle;whiteSpace=wrap;rounded=0;fontSize=12;fontColor=#333333;" parent="mXR4Z3394ZyEQmjUcE1d-1" vertex="1">
                    <mxGeometry x="560" y="760" width="40" height="20" as="geometry"/>
                </mxCell>
                <mxCell id="mXR4Z3394ZyEQmjUcE1d-61" value="5" style="text;html=1;strokeColor=#666666;fillColor=#f5f5f5;align=center;verticalAlign=middle;whiteSpace=wrap;rounded=0;fontSize=12;fontColor=#333333;" parent="mXR4Z3394ZyEQmjUcE1d-1" vertex="1">
                    <mxGeometry x="660" y="760" width="40" height="20" as="geometry"/>
                </mxCell>
                <mxCell id="mXR4Z3394ZyEQmjUcE1d-62" value="6" style="text;html=1;strokeColor=#666666;fillColor=#f5f5f5;align=center;verticalAlign=middle;whiteSpace=wrap;rounded=0;fontSize=12;fontColor=#333333;" parent="mXR4Z3394ZyEQmjUcE1d-1" vertex="1">
                    <mxGeometry x="760" y="760" width="40" height="20" as="geometry"/>
                </mxCell>
                <mxCell id="mXR4Z3394ZyEQmjUcE1d-63" value="Sum :8 - 6 +2 = 4" style="text;html=1;strokeColor=#9673a6;fillColor=#e1d5e7;align=left;verticalAlign=middle;whiteSpace=wrap;rounded=0;fontSize=18;" parent="mXR4Z3394ZyEQmjUcE1d-1" vertex="1">
                    <mxGeometry x="490" y="850" width="130" height="40" as="geometry"/>
                </mxCell>
                <mxCell id="mXR4Z3394ZyEQmjUcE1d-64" value="Max Sum : 12" style="text;html=1;strokeColor=#9673a6;fillColor=#e1d5e7;align=left;verticalAlign=middle;whiteSpace=wrap;rounded=0;fontSize=18;" parent="mXR4Z3394ZyEQmjUcE1d-1" vertex="1">
                    <mxGeometry x="490" y="900" width="130" height="40" as="geometry"/>
                </mxCell>
                <mxCell id="mXR4Z3394ZyEQmjUcE1d-65" value="exclude ++= 4++ = s" style="text;html=1;strokeColor=none;fillColor=none;align=center;verticalAlign=middle;whiteSpace=wrap;rounded=0;fontSize=12;" parent="mXR4Z3394ZyEQmjUcE1d-1" vertex="1">
                    <mxGeometry x="750" y="710" width="110" height="30" as="geometry"/>
                </mxCell>
                <mxCell id="mXR4Z3394ZyEQmjUcE1d-66" value="include++ = 0++ =1" style="text;html=1;strokeColor=none;fillColor=none;align=center;verticalAlign=middle;whiteSpace=wrap;rounded=0;fontSize=12;" parent="mXR4Z3394ZyEQmjUcE1d-1" vertex="1">
                    <mxGeometry x="255" y="720" width="110" height="30" as="geometry"/>
                </mxCell>
                <mxCell id="mXR4Z3394ZyEQmjUcE1d-67" value="1" style="shape=agent;offsetSize=8;strokeWidth=2;fontSize=18;fillColor=#d5e8d4;strokeColor=#82b366;" parent="mXR4Z3394ZyEQmjUcE1d-1" vertex="1">
                    <mxGeometry x="160" y="1000" width="100" height="60" as="geometry"/>
                </mxCell>
                <mxCell id="mXR4Z3394ZyEQmjUcE1d-68" value="2" style="shape=agent;offsetSize=8;strokeWidth=2;fontSize=18;fillColor=#d5e8d4;strokeColor=#82b366;" parent="mXR4Z3394ZyEQmjUcE1d-1" vertex="1">
                    <mxGeometry x="260" y="1000" width="100" height="60" as="geometry"/>
                </mxCell>
                <mxCell id="mXR4Z3394ZyEQmjUcE1d-69" value="3" style="shape=agent;offsetSize=8;strokeWidth=2;fontSize=18;fillColor=#d5e8d4;strokeColor=#82b366;" parent="mXR4Z3394ZyEQmjUcE1d-1" vertex="1">
                    <mxGeometry x="360" y="1000" width="100" height="60" as="geometry"/>
                </mxCell>
                <mxCell id="mXR4Z3394ZyEQmjUcE1d-70" value="4" style="shape=agent;offsetSize=8;strokeWidth=2;fontSize=18;" parent="mXR4Z3394ZyEQmjUcE1d-1" vertex="1">
                    <mxGeometry x="460" y="1000" width="100" height="60" as="geometry"/>
                </mxCell>
                <mxCell id="mXR4Z3394ZyEQmjUcE1d-71" value="" style="shape=agent;offsetSize=8;strokeWidth=2;fontSize=18;" parent="mXR4Z3394ZyEQmjUcE1d-1" vertex="1">
                    <mxGeometry x="560" y="1000" width="100" height="60" as="geometry"/>
                </mxCell>
                <mxCell id="mXR4Z3394ZyEQmjUcE1d-72" value="6" style="shape=agent;offsetSize=8;strokeWidth=2;fontSize=18;fillColor=none;strokeColor=#82b366;" parent="mXR4Z3394ZyEQmjUcE1d-1" vertex="1">
                    <mxGeometry x="660" y="1000" width="100" height="60" as="geometry"/>
                </mxCell>
                <mxCell id="mXR4Z3394ZyEQmjUcE1d-73" value="5" style="shape=agent;offsetSize=8;strokeWidth=2;fontSize=18;fillColor=none;strokeColor=#82b366;" parent="mXR4Z3394ZyEQmjUcE1d-1" vertex="1">
                    <mxGeometry x="560" y="1000" width="100" height="60" as="geometry"/>
                </mxCell>
                <mxCell id="mXR4Z3394ZyEQmjUcE1d-74" value="1" style="shape=agent;offsetSize=8;strokeWidth=2;fontSize=18;fillColor=none;strokeColor=#82b366;" parent="mXR4Z3394ZyEQmjUcE1d-1" vertex="1">
                    <mxGeometry x="760" y="1000" width="100" height="60" as="geometry"/>
                </mxCell>
                <mxCell id="mXR4Z3394ZyEQmjUcE1d-75" value="0" style="text;html=1;strokeColor=#666666;fillColor=#f5f5f5;align=center;verticalAlign=middle;whiteSpace=wrap;rounded=0;fontSize=12;fontColor=#333333;" parent="mXR4Z3394ZyEQmjUcE1d-1" vertex="1">
                    <mxGeometry x="160" y="1000" width="40" height="20" as="geometry"/>
                </mxCell>
                <mxCell id="mXR4Z3394ZyEQmjUcE1d-76" value="1" style="text;html=1;strokeColor=#666666;fillColor=#f5f5f5;align=center;verticalAlign=middle;whiteSpace=wrap;rounded=0;fontSize=12;fontColor=#333333;" parent="mXR4Z3394ZyEQmjUcE1d-1" vertex="1">
                    <mxGeometry x="260" y="1000" width="40" height="20" as="geometry"/>
                </mxCell>
                <mxCell id="mXR4Z3394ZyEQmjUcE1d-77" value="2" style="text;html=1;strokeColor=#666666;fillColor=#f5f5f5;align=center;verticalAlign=middle;whiteSpace=wrap;rounded=0;fontSize=12;fontColor=#333333;" parent="mXR4Z3394ZyEQmjUcE1d-1" vertex="1">
                    <mxGeometry x="360" y="1000" width="40" height="20" as="geometry"/>
                </mxCell>
                <mxCell id="mXR4Z3394ZyEQmjUcE1d-78" value="3" style="text;html=1;strokeColor=#666666;fillColor=#f5f5f5;align=center;verticalAlign=middle;whiteSpace=wrap;rounded=0;fontSize=12;fontColor=#333333;" parent="mXR4Z3394ZyEQmjUcE1d-1" vertex="1">
                    <mxGeometry x="460" y="1000" width="40" height="20" as="geometry"/>
                </mxCell>
                <mxCell id="mXR4Z3394ZyEQmjUcE1d-79" value="4" style="text;html=1;strokeColor=#666666;fillColor=#f5f5f5;align=center;verticalAlign=middle;whiteSpace=wrap;rounded=0;fontSize=12;fontColor=#333333;" parent="mXR4Z3394ZyEQmjUcE1d-1" vertex="1">
                    <mxGeometry x="560" y="1000" width="40" height="20" as="geometry"/>
                </mxCell>
                <mxCell id="mXR4Z3394ZyEQmjUcE1d-80" value="5" style="text;html=1;strokeColor=#666666;fillColor=#f5f5f5;align=center;verticalAlign=middle;whiteSpace=wrap;rounded=0;fontSize=12;fontColor=#333333;" parent="mXR4Z3394ZyEQmjUcE1d-1" vertex="1">
                    <mxGeometry x="660" y="1000" width="40" height="20" as="geometry"/>
                </mxCell>
                <mxCell id="mXR4Z3394ZyEQmjUcE1d-81" value="6" style="text;html=1;strokeColor=#666666;fillColor=#f5f5f5;align=center;verticalAlign=middle;whiteSpace=wrap;rounded=0;fontSize=12;fontColor=#333333;" parent="mXR4Z3394ZyEQmjUcE1d-1" vertex="1">
                    <mxGeometry x="760" y="1000" width="40" height="20" as="geometry"/>
                </mxCell>
                <mxCell id="mXR4Z3394ZyEQmjUcE1d-82" value="Sum :4-1+3 = 6" style="text;html=1;strokeColor=#9673a6;fillColor=#e1d5e7;align=left;verticalAlign=middle;whiteSpace=wrap;rounded=0;fontSize=18;" parent="mXR4Z3394ZyEQmjUcE1d-1" vertex="1">
                    <mxGeometry x="490" y="1090" width="130" height="40" as="geometry"/>
                </mxCell>
                <mxCell id="mXR4Z3394ZyEQmjUcE1d-83" value="Max Sum : 12" style="text;html=1;strokeColor=#6c8ebf;fillColor=#dae8fc;align=left;verticalAlign=middle;whiteSpace=wrap;rounded=0;fontSize=18;" parent="mXR4Z3394ZyEQmjUcE1d-1" vertex="1">
                    <mxGeometry x="490" y="1140" width="130" height="40" as="geometry"/>
                </mxCell>
                <mxCell id="mXR4Z3394ZyEQmjUcE1d-84" value="exclude ++= 5++ = 6" style="text;html=1;strokeColor=none;fillColor=none;align=center;verticalAlign=middle;whiteSpace=wrap;rounded=0;fontSize=12;" parent="mXR4Z3394ZyEQmjUcE1d-1" vertex="1">
                    <mxGeometry x="750" y="950" width="110" height="30" as="geometry"/>
                </mxCell>
                <mxCell id="mXR4Z3394ZyEQmjUcE1d-85" value="include++ = 1++ =2" style="text;html=1;strokeColor=none;fillColor=none;align=center;verticalAlign=middle;whiteSpace=wrap;rounded=0;fontSize=12;" parent="mXR4Z3394ZyEQmjUcE1d-1" vertex="1">
                    <mxGeometry x="355" y="960" width="110" height="30" as="geometry"/>
                </mxCell>
            </root>
        </mxGraphModel>
    </diagram>
    <diagram id="1NZ9qPUr_R8DN8FzapBE" name="Page-4">
        <mxGraphModel dx="1013" dy="731" grid="1" gridSize="10" guides="1" tooltips="1" connect="1" arrows="1" fold="1" page="1" pageScale="1" pageWidth="827" pageHeight="1169" math="0" shadow="0">
            <root>
                <mxCell id="diL5HOl3LxmXgOjNJ6ON-0"/>
                <mxCell id="diL5HOl3LxmXgOjNJ6ON-1" parent="diL5HOl3LxmXgOjNJ6ON-0"/>
                <mxCell id="diL5HOl3LxmXgOjNJ6ON-43" value="Max Heap" style="rounded=0;whiteSpace=wrap;html=1;verticalAlign=bottom;" vertex="1" parent="diL5HOl3LxmXgOjNJ6ON-1">
                    <mxGeometry x="138.25" y="835" width="337" height="165" as="geometry"/>
                </mxCell>
                <mxCell id="diL5HOl3LxmXgOjNJ6ON-2" value="User1" style="shape=agent;offsetSize=8;strokeWidth=2;fillColor=#fff2cc;strokeColor=#d6b656;" vertex="1" parent="diL5HOl3LxmXgOjNJ6ON-1">
                    <mxGeometry x="80" y="120" width="40" height="40" as="geometry"/>
                </mxCell>
                <mxCell id="diL5HOl3LxmXgOjNJ6ON-3" value="User2" style="shape=agent;offsetSize=8;strokeWidth=2;" vertex="1" parent="diL5HOl3LxmXgOjNJ6ON-1">
                    <mxGeometry x="80" y="200" width="40" height="40" as="geometry"/>
                </mxCell>
                <mxCell id="diL5HOl3LxmXgOjNJ6ON-4" value="User 3" style="shape=agent;offsetSize=8;strokeWidth=2;" vertex="1" parent="diL5HOl3LxmXgOjNJ6ON-1">
                    <mxGeometry x="80" y="280" width="40" height="40" as="geometry"/>
                </mxCell>
                <mxCell id="diL5HOl3LxmXgOjNJ6ON-5" value="Tweet 1&#10;(Index 0)" style="shape=agent;offsetSize=8;strokeWidth=2;fillColor=#fff2cc;strokeColor=#d6b656;" vertex="1" parent="diL5HOl3LxmXgOjNJ6ON-1">
                    <mxGeometry x="200" y="120" width="80" height="40" as="geometry"/>
                </mxCell>
                <mxCell id="diL5HOl3LxmXgOjNJ6ON-6" value="Tweet 4 &#10;(Index 0)" style="shape=agent;offsetSize=8;strokeWidth=2;fillColor=#ffe6cc;strokeColor=#d79b00;" vertex="1" parent="diL5HOl3LxmXgOjNJ6ON-1">
                    <mxGeometry x="200" y="280" width="80" height="40" as="geometry"/>
                </mxCell>
                <mxCell id="diL5HOl3LxmXgOjNJ6ON-7" value="Tweet 3 &#10;(index 0)" style="shape=agent;offsetSize=8;strokeWidth=2;fillColor=#d5e8d4;strokeColor=#82b366;" vertex="1" parent="diL5HOl3LxmXgOjNJ6ON-1">
                    <mxGeometry x="200" y="200" width="80" height="40" as="geometry"/>
                </mxCell>
                <mxCell id="diL5HOl3LxmXgOjNJ6ON-8" value="Tweet 2&#10;(Index 1)" style="shape=agent;offsetSize=8;strokeWidth=2;fillColor=#fff2cc;strokeColor=#d6b656;" vertex="1" parent="diL5HOl3LxmXgOjNJ6ON-1">
                    <mxGeometry x="300" y="120" width="80" height="40" as="geometry"/>
                </mxCell>
                <mxCell id="diL5HOl3LxmXgOjNJ6ON-9" value="Tweet 7&#10;( Index 1)" style="shape=agent;offsetSize=8;strokeWidth=2;fillColor=#d5e8d4;strokeColor=#82b366;" vertex="1" parent="diL5HOl3LxmXgOjNJ6ON-1">
                    <mxGeometry x="300" y="200" width="80" height="40" as="geometry"/>
                </mxCell>
                <mxCell id="diL5HOl3LxmXgOjNJ6ON-10" value="Tweet 5 &#10;(index 2)" style="shape=agent;offsetSize=8;strokeWidth=2;fillColor=#fff2cc;strokeColor=#d6b656;" vertex="1" parent="diL5HOl3LxmXgOjNJ6ON-1">
                    <mxGeometry x="410" y="120" width="80" height="40" as="geometry"/>
                </mxCell>
                <mxCell id="diL5HOl3LxmXgOjNJ6ON-11" value="Tweet 6 &#10;(Index 1)" style="shape=agent;offsetSize=8;strokeWidth=2;fillColor=#ffe6cc;strokeColor=#d79b00;" vertex="1" parent="diL5HOl3LxmXgOjNJ6ON-1">
                    <mxGeometry x="300" y="280" width="80" height="40" as="geometry"/>
                </mxCell>
                <mxCell id="diL5HOl3LxmXgOjNJ6ON-12" value="Time 1" style="text;html=1;strokeColor=#666666;fillColor=#f5f5f5;align=center;verticalAlign=middle;whiteSpace=wrap;rounded=0;fontColor=#333333;" vertex="1" parent="diL5HOl3LxmXgOjNJ6ON-1">
                    <mxGeometry x="217.5" y="86" width="45" height="30" as="geometry"/>
                </mxCell>
                <mxCell id="diL5HOl3LxmXgOjNJ6ON-13" value="Time 2" style="text;html=1;strokeColor=#666666;fillColor=#f5f5f5;align=center;verticalAlign=middle;whiteSpace=wrap;rounded=0;fontColor=#333333;" vertex="1" parent="diL5HOl3LxmXgOjNJ6ON-1">
                    <mxGeometry x="320" y="86" width="45" height="30" as="geometry"/>
                </mxCell>
                <mxCell id="diL5HOl3LxmXgOjNJ6ON-14" value="Time 3" style="text;html=1;strokeColor=#666666;fillColor=#f5f5f5;align=center;verticalAlign=middle;whiteSpace=wrap;rounded=0;fontColor=#333333;" vertex="1" parent="diL5HOl3LxmXgOjNJ6ON-1">
                    <mxGeometry x="217.5" y="170" width="45" height="30" as="geometry"/>
                </mxCell>
                <mxCell id="diL5HOl3LxmXgOjNJ6ON-15" value="Time 4" style="text;html=1;strokeColor=#666666;fillColor=#f5f5f5;align=center;verticalAlign=middle;whiteSpace=wrap;rounded=0;fontColor=#333333;" vertex="1" parent="diL5HOl3LxmXgOjNJ6ON-1">
                    <mxGeometry x="217.5" y="245" width="45" height="30" as="geometry"/>
                </mxCell>
                <mxCell id="diL5HOl3LxmXgOjNJ6ON-16" value="Time 5" style="text;html=1;strokeColor=#666666;fillColor=#f5f5f5;align=center;verticalAlign=middle;whiteSpace=wrap;rounded=0;fontColor=#333333;" vertex="1" parent="diL5HOl3LxmXgOjNJ6ON-1">
                    <mxGeometry x="427.5" y="85" width="45" height="30" as="geometry"/>
                </mxCell>
                <mxCell id="diL5HOl3LxmXgOjNJ6ON-17" value="Time 6" style="text;html=1;strokeColor=#666666;fillColor=#f5f5f5;align=center;verticalAlign=middle;whiteSpace=wrap;rounded=0;fontColor=#333333;" vertex="1" parent="diL5HOl3LxmXgOjNJ6ON-1">
                    <mxGeometry x="317.5" y="245" width="45" height="30" as="geometry"/>
                </mxCell>
                <mxCell id="diL5HOl3LxmXgOjNJ6ON-18" value="Time 7" style="text;html=1;strokeColor=#666666;fillColor=#f5f5f5;align=center;verticalAlign=middle;whiteSpace=wrap;rounded=0;fontColor=#333333;" vertex="1" parent="diL5HOl3LxmXgOjNJ6ON-1">
                    <mxGeometry x="319" y="166" width="45" height="30" as="geometry"/>
                </mxCell>
                <mxCell id="diL5HOl3LxmXgOjNJ6ON-19" value="Tweet 8&#10;( Index 2)" style="shape=agent;offsetSize=8;strokeWidth=2;fillColor=#d5e8d4;strokeColor=#82b366;" vertex="1" parent="diL5HOl3LxmXgOjNJ6ON-1">
                    <mxGeometry x="400" y="200" width="80" height="40" as="geometry"/>
                </mxCell>
                <mxCell id="diL5HOl3LxmXgOjNJ6ON-20" value="Time 8" style="text;html=1;strokeColor=#666666;fillColor=#f5f5f5;align=center;verticalAlign=middle;whiteSpace=wrap;rounded=0;fontColor=#333333;" vertex="1" parent="diL5HOl3LxmXgOjNJ6ON-1">
                    <mxGeometry x="415" y="166" width="45" height="30" as="geometry"/>
                </mxCell>
                <mxCell id="diL5HOl3LxmXgOjNJ6ON-21" value="Self User" style="text;html=1;strokeColor=none;fillColor=none;align=center;verticalAlign=middle;whiteSpace=wrap;rounded=0;" vertex="1" parent="diL5HOl3LxmXgOjNJ6ON-1">
                    <mxGeometry x="70" y="70" width="60" height="30" as="geometry"/>
                </mxCell>
                <mxCell id="diL5HOl3LxmXgOjNJ6ON-22" value="Tweets f individual users are &lt;b&gt;sorted&lt;/b&gt; based on timestamp , the latest twwet by the user is at the end" style="text;html=1;strokeColor=#b85450;fillColor=#f8cecc;align=center;verticalAlign=middle;whiteSpace=wrap;rounded=0;" vertex="1" parent="diL5HOl3LxmXgOjNJ6ON-1">
                    <mxGeometry x="170" y="360" width="357" height="30" as="geometry"/>
                </mxCell>
                <mxCell id="diL5HOl3LxmXgOjNJ6ON-23" value="We want to find last 5 tweets across all the above tweets" style="text;html=1;strokeColor=#b85450;fillColor=#f8cecc;align=center;verticalAlign=middle;whiteSpace=wrap;rounded=0;fontStyle=3" vertex="1" parent="diL5HOl3LxmXgOjNJ6ON-1">
                    <mxGeometry x="170" y="420" width="357" height="30" as="geometry"/>
                </mxCell>
                <mxCell id="diL5HOl3LxmXgOjNJ6ON-25" value="Tweet :&lt;br&gt;User:&amp;nbsp;&lt;br&gt;Index:&lt;br&gt;TimeStamp:&lt;br&gt;" style="rounded=0;whiteSpace=wrap;html=1;" vertex="1" parent="diL5HOl3LxmXgOjNJ6ON-1">
                    <mxGeometry x="354" y="547" width="120" height="75" as="geometry"/>
                </mxCell>
                <mxCell id="diL5HOl3LxmXgOjNJ6ON-26" value="We shall use a Max Heap ( based on Timestamp)&amp;nbsp;&amp;nbsp;" style="text;html=1;strokeColor=#b85450;fillColor=#f8cecc;align=center;verticalAlign=middle;whiteSpace=wrap;rounded=0;fontStyle=3" vertex="1" parent="diL5HOl3LxmXgOjNJ6ON-1">
                    <mxGeometry x="150" y="510" width="357" height="30" as="geometry"/>
                </mxCell>
                <mxCell id="diL5HOl3LxmXgOjNJ6ON-27" value="A Heap Element would like&amp;nbsp;" style="text;html=1;strokeColor=#b85450;fillColor=#f8cecc;align=center;verticalAlign=middle;whiteSpace=wrap;rounded=0;fontStyle=3" vertex="1" parent="diL5HOl3LxmXgOjNJ6ON-1">
                    <mxGeometry x="150" y="540" width="192.5" height="60" as="geometry"/>
                </mxCell>
                <mxCell id="diL5HOl3LxmXgOjNJ6ON-29" value="First we put the last tweet of all teh users in teh Heap" style="text;html=1;strokeColor=#b85450;fillColor=#f8cecc;align=center;verticalAlign=middle;whiteSpace=wrap;rounded=0;fontStyle=3" vertex="1" parent="diL5HOl3LxmXgOjNJ6ON-1">
                    <mxGeometry x="135.25" y="790" width="357" height="30" as="geometry"/>
                </mxCell>
                <mxCell id="diL5HOl3LxmXgOjNJ6ON-30" value="We need index of the Tweet from teh user's tweet list" style="text;html=1;strokeColor=none;fillColor=none;align=center;verticalAlign=middle;whiteSpace=wrap;rounded=0;" vertex="1" parent="diL5HOl3LxmXgOjNJ6ON-1">
                    <mxGeometry x="150" y="622" width="200" height="30" as="geometry"/>
                </mxCell>
                <mxCell id="diL5HOl3LxmXgOjNJ6ON-31" value="Tweet 5 &#10;(index 2)" style="shape=agent;offsetSize=8;strokeWidth=2;fillColor=#fff2cc;strokeColor=#d6b656;" vertex="1" parent="diL5HOl3LxmXgOjNJ6ON-1">
                    <mxGeometry x="610" y="420" width="80" height="40" as="geometry"/>
                </mxCell>
                <mxCell id="diL5HOl3LxmXgOjNJ6ON-32" value="Time 3" style="text;html=1;strokeColor=#666666;fillColor=#f5f5f5;align=center;verticalAlign=middle;whiteSpace=wrap;rounded=0;fontColor=#333333;" vertex="1" parent="diL5HOl3LxmXgOjNJ6ON-1">
                    <mxGeometry x="627.5" y="385" width="45" height="30" as="geometry"/>
                </mxCell>
                <mxCell id="diL5HOl3LxmXgOjNJ6ON-33" value="Tweet 8&#10;( Index 2)" style="shape=agent;offsetSize=8;strokeWidth=2;fillColor=#d5e8d4;strokeColor=#82b366;" vertex="1" parent="diL5HOl3LxmXgOjNJ6ON-1">
                    <mxGeometry x="600" y="500" width="80" height="40" as="geometry"/>
                </mxCell>
                <mxCell id="diL5HOl3LxmXgOjNJ6ON-34" value="Time 8" style="text;html=1;strokeColor=#666666;fillColor=#f5f5f5;align=center;verticalAlign=middle;whiteSpace=wrap;rounded=0;fontColor=#333333;" vertex="1" parent="diL5HOl3LxmXgOjNJ6ON-1">
                    <mxGeometry x="615" y="466" width="45" height="30" as="geometry"/>
                </mxCell>
                <mxCell id="diL5HOl3LxmXgOjNJ6ON-35" value="Tweet 6 &#10;(Index 1)" style="shape=agent;offsetSize=8;strokeWidth=2;fillColor=#ffe6cc;strokeColor=#d79b00;" vertex="1" parent="diL5HOl3LxmXgOjNJ6ON-1">
                    <mxGeometry x="690" y="460" width="80" height="40" as="geometry"/>
                </mxCell>
                <mxCell id="diL5HOl3LxmXgOjNJ6ON-36" value="Time 3" style="text;html=1;strokeColor=#666666;fillColor=#f5f5f5;align=center;verticalAlign=middle;whiteSpace=wrap;rounded=0;fontColor=#333333;" vertex="1" parent="diL5HOl3LxmXgOjNJ6ON-1">
                    <mxGeometry x="707.5" y="425" width="45" height="30" as="geometry"/>
                </mxCell>
                <mxCell id="diL5HOl3LxmXgOjNJ6ON-37" value="Tweet 5 &#10;(index 2)" style="shape=agent;offsetSize=8;strokeWidth=2;fillColor=#fff2cc;strokeColor=#d6b656;" vertex="1" parent="diL5HOl3LxmXgOjNJ6ON-1">
                    <mxGeometry x="165.25" y="885" width="80" height="40" as="geometry"/>
                </mxCell>
                <mxCell id="diL5HOl3LxmXgOjNJ6ON-38" value="Time 3" style="text;html=1;strokeColor=#666666;fillColor=#f5f5f5;align=center;verticalAlign=middle;whiteSpace=wrap;rounded=0;fontColor=#333333;" vertex="1" parent="diL5HOl3LxmXgOjNJ6ON-1">
                    <mxGeometry x="182.75" y="850" width="45" height="30" as="geometry"/>
                </mxCell>
                <mxCell id="diL5HOl3LxmXgOjNJ6ON-39" value="Tweet 8&#10;( Index 2)" style="shape=agent;offsetSize=8;strokeWidth=2;fillColor=#d5e8d4;strokeColor=#82b366;" vertex="1" parent="diL5HOl3LxmXgOjNJ6ON-1">
                    <mxGeometry x="355.25" y="885" width="80" height="40" as="geometry"/>
                </mxCell>
                <mxCell id="diL5HOl3LxmXgOjNJ6ON-40" value="Time 8" style="text;html=1;strokeColor=#666666;fillColor=#f5f5f5;align=center;verticalAlign=middle;whiteSpace=wrap;rounded=0;fontColor=#333333;" vertex="1" parent="diL5HOl3LxmXgOjNJ6ON-1">
                    <mxGeometry x="369.25" y="850" width="45" height="30" as="geometry"/>
                </mxCell>
                <mxCell id="diL5HOl3LxmXgOjNJ6ON-41" value="Tweet 6 &#10;(Index 1)" style="shape=agent;offsetSize=8;strokeWidth=2;fillColor=#ffe6cc;strokeColor=#d79b00;" vertex="1" parent="diL5HOl3LxmXgOjNJ6ON-1">
                    <mxGeometry x="257.75" y="885" width="80" height="40" as="geometry"/>
                </mxCell>
                <mxCell id="diL5HOl3LxmXgOjNJ6ON-42" value="Time 6" style="text;html=1;strokeColor=#666666;fillColor=#f5f5f5;align=center;verticalAlign=middle;whiteSpace=wrap;rounded=0;fontColor=#333333;" vertex="1" parent="diL5HOl3LxmXgOjNJ6ON-1">
                    <mxGeometry x="275.25" y="850" width="45" height="30" as="geometry"/>
                </mxCell>
                <mxCell id="diL5HOl3LxmXgOjNJ6ON-44" value="User 1" style="text;html=1;strokeColor=#666666;fillColor=#f5f5f5;align=center;verticalAlign=middle;whiteSpace=wrap;rounded=0;fontColor=#333333;" vertex="1" parent="diL5HOl3LxmXgOjNJ6ON-1">
                    <mxGeometry x="184.25" y="932" width="45" height="30" as="geometry"/>
                </mxCell>
                <mxCell id="diL5HOl3LxmXgOjNJ6ON-45" value="User 3" style="text;html=1;strokeColor=#666666;fillColor=#f5f5f5;align=center;verticalAlign=middle;whiteSpace=wrap;rounded=0;fontColor=#333333;" vertex="1" parent="diL5HOl3LxmXgOjNJ6ON-1">
                    <mxGeometry x="275.25" y="932" width="45" height="30" as="geometry"/>
                </mxCell>
                <mxCell id="diL5HOl3LxmXgOjNJ6ON-46" value="User 3" style="text;html=1;strokeColor=#666666;fillColor=#f5f5f5;align=center;verticalAlign=middle;whiteSpace=wrap;rounded=0;fontColor=#333333;" vertex="1" parent="diL5HOl3LxmXgOjNJ6ON-1">
                    <mxGeometry x="372.75" y="932" width="45" height="30" as="geometry"/>
                </mxCell>
                <mxCell id="diL5HOl3LxmXgOjNJ6ON-47" value="We have user ID with every HEap Element; we know which user has published the tweet" style="text;html=1;strokeColor=#d6b656;fillColor=#fff2cc;align=left;verticalAlign=middle;whiteSpace=wrap;rounded=0;" vertex="1" parent="diL5HOl3LxmXgOjNJ6ON-1">
                    <mxGeometry x="130" y="1010" width="345.25" height="30" as="geometry"/>
                </mxCell>
                <mxCell id="diL5HOl3LxmXgOjNJ6ON-48" value="Every Tweet has index of the tweet from that user's tweet list ; this will help us to navigate backwards in the users tweet list" style="text;html=1;strokeColor=#d6b656;fillColor=#fff2cc;align=left;verticalAlign=middle;whiteSpace=wrap;rounded=0;" vertex="1" parent="diL5HOl3LxmXgOjNJ6ON-1">
                    <mxGeometry x="130" y="1050" width="345.25" height="30" as="geometry"/>
                </mxCell>
                <mxCell id="diL5HOl3LxmXgOjNJ6ON-49" value="Step 1" style="text;html=1;strokeColor=none;fillColor=none;align=center;verticalAlign=middle;whiteSpace=wrap;rounded=0;fontStyle=3" vertex="1" parent="diL5HOl3LxmXgOjNJ6ON-1">
                    <mxGeometry x="138.25" y="740" width="331.75" height="30" as="geometry"/>
                </mxCell>
                <mxCell id="diL5HOl3LxmXgOjNJ6ON-50" value="Max Heap" style="rounded=0;whiteSpace=wrap;html=1;verticalAlign=bottom;" vertex="1" parent="diL5HOl3LxmXgOjNJ6ON-1">
                    <mxGeometry x="138.25" y="1205" width="337" height="165" as="geometry"/>
                </mxCell>
                <mxCell id="diL5HOl3LxmXgOjNJ6ON-51" value="Remove the element with Latest timestamp from the Heap" style="text;html=1;strokeColor=#b85450;fillColor=#f8cecc;align=center;verticalAlign=middle;whiteSpace=wrap;rounded=0;fontStyle=3" vertex="1" parent="diL5HOl3LxmXgOjNJ6ON-1">
                    <mxGeometry x="135.25" y="1139" width="357" height="30" as="geometry"/>
                </mxCell>
                <mxCell id="diL5HOl3LxmXgOjNJ6ON-52" value="Tweet 5 &#10;(index 2)" style="shape=agent;offsetSize=8;strokeWidth=2;fillColor=#fff2cc;strokeColor=#d6b656;" vertex="1" parent="diL5HOl3LxmXgOjNJ6ON-1">
                    <mxGeometry x="165.25" y="1255" width="80" height="40" as="geometry"/>
                </mxCell>
                <mxCell id="diL5HOl3LxmXgOjNJ6ON-53" value="Time 3" style="text;html=1;strokeColor=#666666;fillColor=#f5f5f5;align=center;verticalAlign=middle;whiteSpace=wrap;rounded=0;fontColor=#333333;" vertex="1" parent="diL5HOl3LxmXgOjNJ6ON-1">
                    <mxGeometry x="182.75" y="1220" width="45" height="30" as="geometry"/>
                </mxCell>
                <mxCell id="diL5HOl3LxmXgOjNJ6ON-55" value="Time 8" style="text;html=1;strokeColor=#666666;fillColor=#f5f5f5;align=center;verticalAlign=middle;whiteSpace=wrap;rounded=0;fontColor=#333333;" vertex="1" parent="diL5HOl3LxmXgOjNJ6ON-1">
                    <mxGeometry x="369.25" y="1220" width="45" height="30" as="geometry"/>
                </mxCell>
                <mxCell id="diL5HOl3LxmXgOjNJ6ON-56" value="Tweet 6 &#10;(Index 1)" style="shape=agent;offsetSize=8;strokeWidth=2;fillColor=#ffe6cc;strokeColor=#d79b00;" vertex="1" parent="diL5HOl3LxmXgOjNJ6ON-1">
                    <mxGeometry x="257.75" y="1255" width="80" height="40" as="geometry"/>
                </mxCell>
                <mxCell id="diL5HOl3LxmXgOjNJ6ON-57" value="Time 6" style="text;html=1;strokeColor=#666666;fillColor=#f5f5f5;align=center;verticalAlign=middle;whiteSpace=wrap;rounded=0;fontColor=#333333;" vertex="1" parent="diL5HOl3LxmXgOjNJ6ON-1">
                    <mxGeometry x="275.25" y="1220" width="45" height="30" as="geometry"/>
                </mxCell>
                <mxCell id="diL5HOl3LxmXgOjNJ6ON-58" value="User 1" style="text;html=1;strokeColor=#666666;fillColor=#f5f5f5;align=center;verticalAlign=middle;whiteSpace=wrap;rounded=0;fontColor=#333333;" vertex="1" parent="diL5HOl3LxmXgOjNJ6ON-1">
                    <mxGeometry x="184.25" y="1302" width="45" height="30" as="geometry"/>
                </mxCell>
                <mxCell id="diL5HOl3LxmXgOjNJ6ON-59" value="User 3" style="text;html=1;strokeColor=#666666;fillColor=#f5f5f5;align=center;verticalAlign=middle;whiteSpace=wrap;rounded=0;fontColor=#333333;" vertex="1" parent="diL5HOl3LxmXgOjNJ6ON-1">
                    <mxGeometry x="275.25" y="1302" width="45" height="30" as="geometry"/>
                </mxCell>
                <mxCell id="diL5HOl3LxmXgOjNJ6ON-60" value="User 2" style="text;html=1;strokeColor=#666666;fillColor=#f5f5f5;align=center;verticalAlign=middle;whiteSpace=wrap;rounded=0;fontColor=#333333;" vertex="1" parent="diL5HOl3LxmXgOjNJ6ON-1">
                    <mxGeometry x="372.75" y="1302" width="45" height="30" as="geometry"/>
                </mxCell>
                <mxCell id="diL5HOl3LxmXgOjNJ6ON-61" value="We need to use an appropriate Max Heap Comparator to choose which element to remove" style="text;html=1;strokeColor=#d6b656;fillColor=#fff2cc;align=left;verticalAlign=middle;whiteSpace=wrap;rounded=0;" vertex="1" parent="diL5HOl3LxmXgOjNJ6ON-1">
                    <mxGeometry x="130" y="1380" width="345.25" height="30" as="geometry"/>
                </mxCell>
                <mxCell id="diL5HOl3LxmXgOjNJ6ON-63" value="Step 2" style="text;html=1;strokeColor=none;fillColor=none;align=center;verticalAlign=middle;whiteSpace=wrap;rounded=0;fontStyle=3" vertex="1" parent="diL5HOl3LxmXgOjNJ6ON-1">
                    <mxGeometry x="138.25" y="1110" width="331.75" height="30" as="geometry"/>
                </mxCell>
                <mxCell id="diL5HOl3LxmXgOjNJ6ON-64" value="This element goes to our final result" style="text;html=1;strokeColor=#b85450;fillColor=#f8cecc;align=center;verticalAlign=middle;whiteSpace=wrap;rounded=0;fontStyle=3" vertex="1" parent="diL5HOl3LxmXgOjNJ6ON-1">
                    <mxGeometry x="135.25" y="1172" width="357" height="30" as="geometry"/>
                </mxCell>
                <mxCell id="diL5HOl3LxmXgOjNJ6ON-65" value="" style="rounded=0;whiteSpace=wrap;html=1;" vertex="1" parent="diL5HOl3LxmXgOjNJ6ON-1">
                    <mxGeometry x="527" y="1205" width="120" height="165" as="geometry"/>
                </mxCell>
                <mxCell id="diL5HOl3LxmXgOjNJ6ON-66" value="Tweet 8&#10;( Index 2)" style="shape=agent;offsetSize=8;strokeWidth=2;fillColor=#d5e8d4;strokeColor=#82b366;" vertex="1" parent="diL5HOl3LxmXgOjNJ6ON-1">
                    <mxGeometry x="547" y="1215" width="80" height="40" as="geometry"/>
                </mxCell>
                <mxCell id="diL5HOl3LxmXgOjNJ6ON-68" value="Max Heap" style="rounded=0;whiteSpace=wrap;html=1;verticalAlign=bottom;" vertex="1" parent="diL5HOl3LxmXgOjNJ6ON-1">
                    <mxGeometry x="138.25" y="1549" width="337" height="165" as="geometry"/>
                </mxCell>
                <mxCell id="diL5HOl3LxmXgOjNJ6ON-69" value="For the Removed element , Identify the User of the Tweet :&amp;nbsp;&lt;br&gt;User 2 for us" style="text;html=1;strokeColor=#b85450;fillColor=#f8cecc;align=center;verticalAlign=middle;whiteSpace=wrap;rounded=0;fontStyle=3" vertex="1" parent="diL5HOl3LxmXgOjNJ6ON-1">
                    <mxGeometry x="137.88" y="1430" width="357" height="30" as="geometry"/>
                </mxCell>
                <mxCell id="diL5HOl3LxmXgOjNJ6ON-70" value="Tweet 5 &#10;(index 2)" style="shape=agent;offsetSize=8;strokeWidth=2;fillColor=#fff2cc;strokeColor=#d6b656;" vertex="1" parent="diL5HOl3LxmXgOjNJ6ON-1">
                    <mxGeometry x="165.25" y="1599" width="80" height="40" as="geometry"/>
                </mxCell>
                <mxCell id="diL5HOl3LxmXgOjNJ6ON-71" value="Time 3" style="text;html=1;strokeColor=#666666;fillColor=#f5f5f5;align=center;verticalAlign=middle;whiteSpace=wrap;rounded=0;fontColor=#333333;" vertex="1" parent="diL5HOl3LxmXgOjNJ6ON-1">
                    <mxGeometry x="182.75" y="1564" width="45" height="30" as="geometry"/>
                </mxCell>
                <mxCell id="diL5HOl3LxmXgOjNJ6ON-72" value="Tweet 7&#10;( Index 1)" style="shape=agent;offsetSize=8;strokeWidth=2;fillColor=#d5e8d4;strokeColor=#82b366;" vertex="1" parent="diL5HOl3LxmXgOjNJ6ON-1">
                    <mxGeometry x="355.25" y="1599" width="80" height="40" as="geometry"/>
                </mxCell>
                <mxCell id="diL5HOl3LxmXgOjNJ6ON-73" value="Time 7" style="text;html=1;strokeColor=#666666;fillColor=#f5f5f5;align=center;verticalAlign=middle;whiteSpace=wrap;rounded=0;fontColor=#333333;" vertex="1" parent="diL5HOl3LxmXgOjNJ6ON-1">
                    <mxGeometry x="369.25" y="1564" width="45" height="30" as="geometry"/>
                </mxCell>
                <mxCell id="diL5HOl3LxmXgOjNJ6ON-74" value="Tweet 6 &#10;(Index 1)" style="shape=agent;offsetSize=8;strokeWidth=2;fillColor=#ffe6cc;strokeColor=#d79b00;" vertex="1" parent="diL5HOl3LxmXgOjNJ6ON-1">
                    <mxGeometry x="257.75" y="1599" width="80" height="40" as="geometry"/>
                </mxCell>
                <mxCell id="diL5HOl3LxmXgOjNJ6ON-75" value="Time 6" style="text;html=1;strokeColor=#666666;fillColor=#f5f5f5;align=center;verticalAlign=middle;whiteSpace=wrap;rounded=0;fontColor=#333333;" vertex="1" parent="diL5HOl3LxmXgOjNJ6ON-1">
                    <mxGeometry x="275.25" y="1564" width="45" height="30" as="geometry"/>
                </mxCell>
                <mxCell id="diL5HOl3LxmXgOjNJ6ON-76" value="User 1" style="text;html=1;strokeColor=#666666;fillColor=#f5f5f5;align=center;verticalAlign=middle;whiteSpace=wrap;rounded=0;fontColor=#333333;" vertex="1" parent="diL5HOl3LxmXgOjNJ6ON-1">
                    <mxGeometry x="184.25" y="1646" width="45" height="30" as="geometry"/>
                </mxCell>
                <mxCell id="diL5HOl3LxmXgOjNJ6ON-77" value="User 3" style="text;html=1;strokeColor=#666666;fillColor=#f5f5f5;align=center;verticalAlign=middle;whiteSpace=wrap;rounded=0;fontColor=#333333;" vertex="1" parent="diL5HOl3LxmXgOjNJ6ON-1">
                    <mxGeometry x="275.25" y="1646" width="45" height="30" as="geometry"/>
                </mxCell>
                <mxCell id="diL5HOl3LxmXgOjNJ6ON-78" value="User 2" style="text;html=1;strokeColor=#666666;fillColor=#f5f5f5;align=center;verticalAlign=middle;whiteSpace=wrap;rounded=0;fontColor=#333333;" vertex="1" parent="diL5HOl3LxmXgOjNJ6ON-1">
                    <mxGeometry x="372.75" y="1646" width="45" height="30" as="geometry"/>
                </mxCell>
                <mxCell id="diL5HOl3LxmXgOjNJ6ON-79" value="We need to use an appropriate Max Heap Comparator to choose which element to remove" style="text;html=1;strokeColor=#d6b656;fillColor=#fff2cc;align=left;verticalAlign=middle;whiteSpace=wrap;rounded=0;" vertex="1" parent="diL5HOl3LxmXgOjNJ6ON-1">
                    <mxGeometry x="130" y="1724" width="345.25" height="30" as="geometry"/>
                </mxCell>
                <mxCell id="diL5HOl3LxmXgOjNJ6ON-80" value="Identify the Index&amp;nbsp; of teh Tweet : 2 for us" style="text;html=1;strokeColor=#b85450;fillColor=#f8cecc;align=center;verticalAlign=middle;whiteSpace=wrap;rounded=0;fontStyle=3" vertex="1" parent="diL5HOl3LxmXgOjNJ6ON-1">
                    <mxGeometry x="137.88" y="1463" width="357" height="30" as="geometry"/>
                </mxCell>
                <mxCell id="diL5HOl3LxmXgOjNJ6ON-67" value="" style="rounded=0;whiteSpace=wrap;html=1;fillColor=none;dashed=1;strokeColor=#3414FF;" vertex="1" parent="diL5HOl3LxmXgOjNJ6ON-1">
                    <mxGeometry x="354" y="1215" width="94.75" height="130" as="geometry"/>
                </mxCell>
                <mxCell id="diL5HOl3LxmXgOjNJ6ON-82" value="Load the Previous Tweet of that User&amp;nbsp; In the HEap:&lt;br&gt;Tweet at ndex 1 of User 2" style="text;html=1;strokeColor=#b85450;fillColor=#f8cecc;align=center;verticalAlign=middle;whiteSpace=wrap;rounded=0;fontStyle=3" vertex="1" parent="diL5HOl3LxmXgOjNJ6ON-1">
                    <mxGeometry x="137.88" y="1497" width="357" height="30" as="geometry"/>
                </mxCell>
            </root>
        </mxGraphModel>
    </diagram>
</mxfile>